<svg width="20" height="17" viewBox="0 0 20 17" fill="none" xmlns="http://www.w3.org/2000/svg">
<path fill-rule="evenodd" clip-rule="evenodd" d="M7.60229 1.94677C7.60229 1.94677 8.71489 1.71397 10.0002 1.71397C11.2855 1.71397 12.3981 1.94677 12.3981 1.94677L12.8431 1.02891C12.937 0.835088 13.1438 0.721958 13.3549 0.756018C15.501 1.10213 17.501 2.25 17.501 2.25C17.501 2.25 19.9994 4.75 19.9994 13.5673C20.0004 13.7261 19.9265 13.8801 19.7986 13.9725C18.1582 15.1572 16.1659 15.9353 15.3621 16.2224C15.1491 16.2985 14.9158 16.2127 14.7944 16.0205L14.2319 15.1301C14.0779 14.8864 14.1579 14.5622 14.4071 14.4198L15.5826 13.7483L15.1071 13.3731C15.1071 13.3731 13.2051 14.5247 10.0002 14.5247C6.79526 14.5247 4.89331 13.3731 4.89331 13.3731L4.41783 13.7483L5.59324 14.4198C5.8425 14.5622 5.92249 14.8864 5.76851 15.1301L5.20601 16.0205C5.08456 16.2127 4.85124 16.2985 4.63825 16.2224C3.83449 15.9353 1.84215 15.1572 0.201777 13.9725C0.0738368 13.8801 -1.34113e-05 13.7261 0.000986589 13.5673C0.000986589 4.75 2.50098 2.25 2.50098 2.25C2.50098 2.25 4.50098 1.10187 6.64548 0.756018C6.85663 0.721958 7.06333 0.835088 7.1573 1.02891L7.60229 1.94677ZM15.251 9.25C15.251 10.3546 14.4675 11.25 13.501 11.25C12.5345 11.25 11.751 10.3546 11.751 9.25C11.751 8.1454 12.5345 7.25 13.501 7.25C14.4675 7.25 15.251 8.1454 15.251 9.25ZM6.50098 11.25C7.46748 11.25 8.25099 10.3546 8.25099 9.25C8.25099 8.1454 7.46748 7.25 6.50098 7.25C5.53449 7.25 4.75098 8.1454 4.75098 9.25C4.75098 10.3546 5.53449 11.25 6.50098 11.25Z" fill="#545756"/>
</svg>
