<svg width="22" height="21" viewBox="0 0 22 21" fill="none" xmlns="http://www.w3.org/2000/svg">
<path fill-rule="evenodd" clip-rule="evenodd" d="M10.9428 0.25H11.0572C13.2479 0.24999 14.9686 0.24998 16.312 0.43059C17.6886 0.61568 18.7809 1.00271 19.6391 1.86091C20.4973 2.71911 20.8843 3.81137 21.0694 5.18802C21.25 6.53144 21.25 8.25214 21.25 10.4428V10.5572C21.25 12.7479 21.25 14.4686 21.0694 15.812C20.8843 17.1886 20.4973 18.2809 19.6391 19.1391C18.7809 19.9973 17.6886 20.3843 16.312 20.5694C14.9686 20.75 13.2479 20.75 11.0572 20.75H10.9428C8.7521 20.75 7.03144 20.75 5.68802 20.5694C4.31137 20.3843 3.21911 19.9973 2.36091 19.1391C1.50272 18.2809 1.11568 17.1886 0.93059 15.812C0.74998 14.4686 0.74999 12.7479 0.75 10.5572V10.4428C0.74999 8.25211 0.74998 6.53144 0.93059 5.18802C1.11568 3.81137 1.50272 2.71911 2.36091 1.86091C3.21911 1.00271 4.31137 0.61568 5.68802 0.43059C7.03143 0.24998 8.75214 0.24999 10.9428 0.25ZM7.00195 9C7.00195 8.44771 6.55424 8 6.00195 8C5.44967 8 5.00195 8.44771 5.00195 9V15.5C5.00195 16.0523 5.44967 16.5 6.00195 16.5C6.55424 16.5 7.00195 16.0523 7.00195 15.5V9ZM10.002 7.5C10.4073 7.5 10.7564 7.7412 10.9134 8.08791C11.5213 7.715 12.2365 7.5 13.002 7.5C15.2111 7.5 17.002 9.2909 17.002 11.5V15.5C17.002 16.0523 16.5542 16.5 16.002 16.5C15.4497 16.5 15.002 16.0523 15.002 15.5V11.5C15.002 10.3954 14.1065 9.5 13.002 9.5C11.8974 9.5 11.002 10.3954 11.002 11.5V15.5C11.002 16.0523 10.5542 16.5 10.002 16.5C9.4497 16.5 9.002 16.0523 9.002 15.5V8.5C9.002 7.94771 9.4497 7.5 10.002 7.5ZM7.25977 5.5C7.25977 6.19036 6.70012 6.75 6.00977 6.75H6.00078C5.31043 6.75 4.75078 6.19036 4.75078 5.5C4.75078 4.80964 5.31043 4.25 6.00078 4.25H6.00977C6.70012 4.25 7.25977 4.80964 7.25977 5.5Z" fill="#545756"/>
</svg>
