<svg width="22" height="21" viewBox="0 0 22 21" fill="none" xmlns="http://www.w3.org/2000/svg">
<path fill-rule="evenodd" clip-rule="evenodd" d="M11.0572 0.25C13.2479 0.24999 14.9686 0.24998 16.312 0.43059C17.6886 0.61568 18.7809 1.00271 19.6391 1.86091C20.4973 2.71911 20.8843 3.81137 21.0694 5.18802C21.25 6.53144 21.25 8.2521 21.25 10.4428V10.5572C21.25 12.7479 21.25 14.4686 21.0694 15.812C20.8843 17.1886 20.4973 18.2809 19.6391 19.1391C18.7809 19.9973 17.6886 20.3843 16.312 20.5694C14.9686 20.75 13.2479 20.75 11.0572 20.75H10.9428C8.7521 20.75 7.03144 20.75 5.68802 20.5694C4.31137 20.3843 3.21911 19.9973 2.36091 19.1391C1.50272 18.2809 1.11568 17.1886 0.93059 15.812C0.74998 14.4686 0.74999 12.7479 0.75 10.5572V10.4428C0.74999 8.25212 0.74998 6.53144 0.93059 5.18802C1.11568 3.81137 1.50272 2.71911 2.36091 1.86091C3.21911 1.00271 4.31137 0.61568 5.68802 0.43059C7.03143 0.24998 8.7521 0.24999 10.9428 0.25H11.0572ZM15.5 10.5C15.5 12.9853 13.4853 15 11 15C8.51472 15 6.5 12.9853 6.5 10.5C6.5 8.01472 8.51472 6 11 6C13.4853 6 15.5 8.01472 15.5 10.5ZM16.5123 6C17.0621 6 17.5078 5.55229 17.5078 5C17.5078 4.44772 17.0621 4 16.5123 4H16.5033C15.9535 4 15.5078 4.44772 15.5078 5C15.5078 5.55228 15.9535 6 16.5033 6H16.5123Z" fill="#545756"/>
</svg>
