<svg width="20" height="21" viewBox="0 0 20 21" fill="none" xmlns="http://www.w3.org/2000/svg">
<path d="M0.356902 1.28113C0.523592 0.95513 0.858862 0.75 1.225 0.75H6.1C6.41308 0.75 6.70711 0.90034 6.89041 1.15415L11.5354 7.58571L18.0856 1.03557C18.4663 0.65481 19.0837 0.65481 19.4644 1.03557C19.8452 1.41633 19.8452 2.03367 19.4644 2.41443L12.6919 9.187L19.5654 18.7041C19.7798 19.001 19.8098 19.3929 19.6431 19.7189C19.4764 20.0449 19.1411 20.25 18.775 20.25H13.9C13.5869 20.25 13.2929 20.0997 13.1096 19.8459L8.4646 13.4143L1.91443 19.9644C1.53367 20.3452 0.916342 20.3452 0.535572 19.9644C0.154812 19.5837 0.154812 18.9663 0.535572 18.5856L7.30811 11.813L0.434592 2.29585C0.220222 1.99903 0.190212 1.60713 0.356902 1.28113Z" fill="#545756"/>
</svg>
