<svg width="135" height="57" viewBox="0 0 135 57" fill="none" xmlns="http://www.w3.org/2000/svg">
<rect x="0.5" y="29.5" width="134" height="27" rx="3.5" fill="#EEDFFF"/>
<rect x="0.5" y="29.5" width="134" height="27" rx="3.5" stroke="#801FEF"/>
<path d="M17.5237 47V39.08H20.6437C21.5957 39.08 22.2917 39.272 22.7317 39.656C23.1717 40.04 23.3917 40.572 23.3917 41.252C23.3917 41.668 23.2717 42.04 23.0317 42.368C22.7917 42.688 22.4397 42.892 21.9757 42.98V42.992C22.4877 43.072 22.8837 43.284 23.1637 43.628C23.4517 43.964 23.5957 44.356 23.5957 44.804C23.5957 45.484 23.3477 46.02 22.8517 46.412C22.3557 46.804 21.6357 47 20.6917 47H17.5237ZM18.7837 45.932H20.7517C21.2557 45.932 21.6317 45.828 21.8797 45.62C22.1357 45.412 22.2637 45.12 22.2637 44.744C22.2637 44.368 22.1357 44.076 21.8797 43.868C21.6317 43.66 21.2557 43.556 20.7517 43.556H18.7837V45.932ZM18.7837 42.488H20.5477C21.5557 42.488 22.0597 42.1 22.0597 41.324C22.0597 40.548 21.5557 40.16 20.5477 40.16H18.7837V42.488ZM25.289 47V41H26.381L26.501 42.08C26.661 41.688 26.897 41.392 27.209 41.192C27.529 40.984 27.921 40.88 28.385 40.88C28.505 40.88 28.625 40.892 28.745 40.916C28.865 40.932 28.965 40.96 29.045 41L28.865 42.128C28.777 42.096 28.677 42.072 28.565 42.056C28.461 42.032 28.317 42.02 28.133 42.02C27.885 42.02 27.641 42.088 27.401 42.224C27.161 42.352 26.961 42.548 26.801 42.812C26.649 43.076 26.573 43.412 26.573 43.82V47H25.289ZM33.5968 43.148C33.5968 42.748 33.4848 42.44 33.2608 42.224C33.0448 42 32.7448 41.888 32.3608 41.888C32.0008 41.888 31.6928 41.972 31.4368 42.14C31.1808 42.308 30.9928 42.58 30.8728 42.956L29.7928 42.5C29.9448 42.012 30.2408 41.62 30.6808 41.324C31.1288 41.028 31.7048 40.88 32.4088 40.88C32.8888 40.88 33.3128 40.96 33.6808 41.12C34.0488 41.272 34.3368 41.504 34.5448 41.816C34.7608 42.128 34.8688 42.528 34.8688 43.016V45.692C34.8688 45.988 35.0168 46.136 35.3128 46.136C35.4568 46.136 35.5968 46.116 35.7328 46.076L35.6608 46.964C35.4768 47.052 35.2448 47.096 34.9648 47.096C34.7088 47.096 34.4768 47.052 34.2688 46.964C34.0688 46.868 33.9088 46.728 33.7888 46.544C33.6768 46.352 33.6208 46.116 33.6208 45.836V45.752L33.8848 45.74C33.8128 46.052 33.6648 46.312 33.4408 46.52C33.2168 46.72 32.9568 46.872 32.6608 46.976C32.3648 47.072 32.0648 47.12 31.7608 47.12C31.3848 47.12 31.0448 47.06 30.7408 46.94C30.4448 46.82 30.2088 46.64 30.0328 46.4C29.8648 46.152 29.7808 45.848 29.7808 45.488C29.7808 45.04 29.9248 44.672 30.2128 44.384C30.5088 44.096 30.9248 43.9 31.4608 43.796L33.7888 43.34L33.7768 44.24L32.0848 44.588C31.7488 44.652 31.4968 44.744 31.3288 44.864C31.1608 44.984 31.0768 45.16 31.0768 45.392C31.0768 45.616 31.1608 45.796 31.3288 45.932C31.5048 46.06 31.7368 46.124 32.0248 46.124C32.2248 46.124 32.4168 46.1 32.6008 46.052C32.7928 46.004 32.9648 45.928 33.1168 45.824C33.2688 45.712 33.3848 45.572 33.4648 45.404C33.5528 45.228 33.5968 45.02 33.5968 44.78V43.148ZM36.9726 47V41H38.1126L38.1966 42.56L38.0286 42.392C38.1406 42.048 38.3006 41.764 38.5086 41.54C38.7246 41.308 38.9766 41.14 39.2646 41.036C39.5606 40.932 39.8726 40.88 40.2006 40.88C40.6246 40.88 41.0046 40.964 41.3406 41.132C41.6846 41.292 41.9566 41.536 42.1566 41.864C42.3566 42.192 42.4566 42.608 42.4566 43.112V47H41.1726V43.508C41.1726 42.916 41.0486 42.508 40.8006 42.284C40.5606 42.052 40.2566 41.936 39.8886 41.936C39.6246 41.936 39.3686 42 39.1206 42.128C38.8726 42.248 38.6646 42.444 38.4966 42.716C38.3366 42.988 38.2566 43.352 38.2566 43.808V47H36.9726ZM46.7063 47.12C46.2103 47.12 45.7583 46.996 45.3503 46.748C44.9503 46.5 44.6343 46.144 44.4023 45.68C44.1703 45.216 44.0543 44.66 44.0543 44.012C44.0543 43.34 44.1783 42.772 44.4263 42.308C44.6743 41.844 45.0063 41.492 45.4223 41.252C45.8383 41.004 46.2943 40.88 46.7903 40.88C47.3023 40.88 47.7343 41.02 48.0863 41.3C48.4383 41.58 48.6743 41.944 48.7943 42.392L48.6503 42.524V38.3H49.9343V47H48.7943L48.6983 45.368L48.8663 45.38C48.8103 45.74 48.6783 46.052 48.4703 46.316C48.2623 46.572 48.0023 46.772 47.6903 46.916C47.3863 47.052 47.0583 47.12 46.7063 47.12ZM46.9823 46.088C47.3263 46.088 47.6223 46 47.8703 45.824C48.1183 45.648 48.3103 45.4 48.4463 45.08C48.5823 44.76 48.6503 44.376 48.6503 43.928C48.6503 43.512 48.5823 43.156 48.4463 42.86C48.3103 42.556 48.1183 42.324 47.8703 42.164C47.6303 42.004 47.3503 41.924 47.0303 41.924C46.4943 41.924 46.0783 42.108 45.7823 42.476C45.4863 42.844 45.3383 43.352 45.3383 44C45.3383 44.648 45.4823 45.16 45.7703 45.536C46.0583 45.904 46.4623 46.088 46.9823 46.088ZM58.708 38.96C59.42 38.96 60.036 39.096 60.556 39.368C61.076 39.632 61.516 40.024 61.876 40.544L61.012 41.372C60.708 40.908 60.364 40.576 59.98 40.376C59.604 40.168 59.156 40.064 58.636 40.064C58.252 40.064 57.936 40.116 57.688 40.22C57.44 40.324 57.256 40.464 57.136 40.64C57.024 40.808 56.968 41 56.968 41.216C56.968 41.464 57.052 41.68 57.22 41.864C57.396 42.048 57.72 42.192 58.192 42.296L59.8 42.656C60.568 42.824 61.112 43.08 61.432 43.424C61.752 43.768 61.912 44.204 61.912 44.732C61.912 45.22 61.78 45.644 61.516 46.004C61.252 46.364 60.884 46.64 60.412 46.832C59.948 47.024 59.4 47.12 58.768 47.12C58.208 47.12 57.704 47.048 57.256 46.904C56.808 46.76 56.416 46.564 56.08 46.316C55.744 46.068 55.468 45.784 55.252 45.464L56.14 44.576C56.308 44.856 56.52 45.108 56.776 45.332C57.032 45.548 57.328 45.716 57.664 45.836C58.008 45.956 58.388 46.016 58.804 46.016C59.172 46.016 59.488 45.972 59.752 45.884C60.024 45.796 60.228 45.668 60.364 45.5C60.508 45.324 60.58 45.116 60.58 44.876C60.58 44.644 60.5 44.44 60.34 44.264C60.188 44.088 59.9 43.952 59.476 43.856L57.736 43.46C57.256 43.356 56.86 43.208 56.548 43.016C56.236 42.824 56.004 42.592 55.852 42.32C55.7 42.04 55.624 41.728 55.624 41.384C55.624 40.936 55.744 40.532 55.984 40.172C56.232 39.804 56.588 39.512 57.052 39.296C57.516 39.072 58.068 38.96 58.708 38.96ZM65.2793 39.236V45.2C65.2793 45.496 65.3553 45.712 65.5073 45.848C65.6673 45.984 65.8793 46.052 66.1433 46.052C66.3593 46.052 66.5473 46.02 66.7073 45.956C66.8673 45.884 67.0153 45.788 67.1513 45.668L67.4393 46.604C67.2553 46.764 67.0273 46.892 66.7553 46.988C66.4913 47.076 66.1953 47.12 65.8673 47.12C65.5233 47.12 65.2073 47.064 64.9193 46.952C64.6313 46.84 64.4073 46.66 64.2473 46.412C64.0873 46.156 64.0033 45.824 63.9953 45.416V39.596L65.2793 39.236ZM67.3433 41V42.008H62.8433V41H67.3433ZM68.6132 47V41H69.7052L69.8252 42.08C69.9852 41.688 70.2212 41.392 70.5332 41.192C70.8532 40.984 71.2452 40.88 71.7092 40.88C71.8292 40.88 71.9492 40.892 72.0692 40.916C72.1892 40.932 72.2892 40.96 72.3692 41L72.1892 42.128C72.1012 42.096 72.0012 42.072 71.8892 42.056C71.7852 42.032 71.6412 42.02 71.4572 42.02C71.2092 42.02 70.9652 42.088 70.7252 42.224C70.4852 42.352 70.2852 42.548 70.1252 42.812C69.9732 43.076 69.8972 43.412 69.8972 43.82V47H68.6132ZM76.921 43.148C76.921 42.748 76.809 42.44 76.585 42.224C76.369 42 76.069 41.888 75.685 41.888C75.325 41.888 75.017 41.972 74.761 42.14C74.505 42.308 74.317 42.58 74.197 42.956L73.117 42.5C73.269 42.012 73.565 41.62 74.005 41.324C74.453 41.028 75.029 40.88 75.733 40.88C76.213 40.88 76.637 40.96 77.005 41.12C77.373 41.272 77.661 41.504 77.869 41.816C78.085 42.128 78.193 42.528 78.193 43.016V45.692C78.193 45.988 78.341 46.136 78.637 46.136C78.781 46.136 78.921 46.116 79.057 46.076L78.985 46.964C78.801 47.052 78.569 47.096 78.289 47.096C78.033 47.096 77.801 47.052 77.593 46.964C77.393 46.868 77.233 46.728 77.113 46.544C77.001 46.352 76.945 46.116 76.945 45.836V45.752L77.209 45.74C77.137 46.052 76.989 46.312 76.765 46.52C76.541 46.72 76.281 46.872 75.985 46.976C75.689 47.072 75.389 47.12 75.085 47.12C74.709 47.12 74.369 47.06 74.065 46.94C73.769 46.82 73.533 46.64 73.357 46.4C73.189 46.152 73.105 45.848 73.105 45.488C73.105 45.04 73.249 44.672 73.537 44.384C73.833 44.096 74.249 43.9 74.785 43.796L77.113 43.34L77.101 44.24L75.409 44.588C75.073 44.652 74.821 44.744 74.653 44.864C74.485 44.984 74.401 45.16 74.401 45.392C74.401 45.616 74.485 45.796 74.653 45.932C74.829 46.06 75.061 46.124 75.349 46.124C75.549 46.124 75.741 46.1 75.925 46.052C76.117 46.004 76.289 45.928 76.441 45.824C76.593 45.712 76.709 45.572 76.789 45.404C76.877 45.228 76.921 45.02 76.921 44.78V43.148ZM81.8144 39.236V45.2C81.8144 45.496 81.8904 45.712 82.0424 45.848C82.2024 45.984 82.4144 46.052 82.6784 46.052C82.8944 46.052 83.0824 46.02 83.2424 45.956C83.4024 45.884 83.5504 45.788 83.6864 45.668L83.9744 46.604C83.7904 46.764 83.5624 46.892 83.2904 46.988C83.0264 47.076 82.7304 47.12 82.4024 47.12C82.0584 47.12 81.7424 47.064 81.4544 46.952C81.1664 46.84 80.9424 46.66 80.7824 46.412C80.6224 46.156 80.5384 45.824 80.5304 45.416V39.596L81.8144 39.236ZM83.8784 41V42.008H79.3784V41H83.8784ZM87.7883 47.12C87.1883 47.12 86.6603 46.996 86.2043 46.748C85.7483 46.5 85.3923 46.144 85.1363 45.68C84.8883 45.208 84.7643 44.648 84.7643 44C84.7643 43.352 84.8883 42.796 85.1363 42.332C85.3923 41.86 85.7443 41.5 86.1923 41.252C86.6403 41.004 87.1483 40.88 87.7163 40.88C88.3003 40.88 88.7963 41 89.2043 41.24C89.6123 41.48 89.9243 41.808 90.1403 42.224C90.3563 42.64 90.4643 43.112 90.4643 43.64C90.4643 43.784 90.4603 43.92 90.4523 44.048C90.4443 44.176 90.4323 44.288 90.4163 44.384H85.5923V43.4H89.8523L89.2163 43.592C89.2163 43.048 89.0803 42.632 88.8083 42.344C88.5363 42.048 88.1643 41.9 87.6923 41.9C87.3483 41.9 87.0483 41.98 86.7923 42.14C86.5363 42.3 86.3403 42.54 86.2043 42.86C86.0683 43.172 86.0003 43.556 86.0003 44.012C86.0003 44.46 86.0723 44.84 86.2163 45.152C86.3603 45.464 86.5643 45.7 86.8283 45.86C87.0923 46.02 87.4043 46.1 87.7643 46.1C88.1643 46.1 88.4883 46.024 88.7363 45.872C88.9843 45.72 89.1803 45.508 89.3243 45.236L90.3443 45.716C90.2003 46.004 90.0043 46.256 89.7563 46.472C89.5163 46.68 89.2283 46.84 88.8923 46.952C88.5563 47.064 88.1883 47.12 87.7883 47.12ZM97.3658 39.74L97.5698 40.748C97.5458 40.748 97.5218 40.748 97.4978 40.748C97.4738 40.74 97.4498 40.736 97.4258 40.736C97.0418 40.736 96.7498 40.82 96.5498 40.988C96.3498 41.148 96.2498 41.384 96.2498 41.696L95.6258 41.408C95.6258 41.088 95.6938 40.804 95.8298 40.556C95.9658 40.3 96.1578 40.1 96.4058 39.956C96.6618 39.812 96.9498 39.74 97.2698 39.74C97.2858 39.74 97.3018 39.74 97.3178 39.74C97.3338 39.74 97.3498 39.74 97.3658 39.74ZM95.4698 46.064C96.0778 46.064 96.5498 46.2 96.8858 46.472C97.2218 46.736 97.3898 47.104 97.3898 47.576C97.3898 47.992 97.2578 48.348 96.9938 48.644C96.7298 48.948 96.3698 49.18 95.9138 49.34C95.4658 49.5 94.9498 49.58 94.3658 49.58C93.3818 49.58 92.6538 49.428 92.1818 49.124C91.7098 48.82 91.4738 48.44 91.4738 47.984C91.4738 47.664 91.5858 47.384 91.8098 47.144C92.0418 46.904 92.4298 46.768 92.9738 46.736L92.9018 46.928C92.5658 46.856 92.2938 46.728 92.0858 46.544C91.8858 46.352 91.7858 46.084 91.7858 45.74C91.7858 45.396 91.9178 45.104 92.1818 44.864C92.4458 44.624 92.8178 44.484 93.2978 44.444L93.9698 44.768H93.8258C93.4578 44.8 93.1978 44.884 93.0458 45.02C92.8938 45.156 92.8178 45.308 92.8178 45.476C92.8178 45.676 92.8898 45.824 93.0338 45.92C93.1858 46.016 93.3978 46.064 93.6698 46.064H95.4698ZM94.3658 48.62C94.8058 48.62 95.1658 48.576 95.4458 48.488C95.7338 48.408 95.9458 48.3 96.0818 48.164C96.2258 48.036 96.2978 47.892 96.2978 47.732C96.2978 47.548 96.2218 47.4 96.0698 47.288C95.9258 47.176 95.6618 47.12 95.2778 47.12H93.3458C93.1218 47.12 92.9338 47.176 92.7818 47.288C92.6298 47.408 92.5538 47.568 92.5538 47.768C92.5538 48.032 92.7138 48.24 93.0338 48.392C93.3538 48.544 93.7978 48.62 94.3658 48.62ZM94.3178 40.88C94.8458 40.88 95.3018 40.964 95.6858 41.132C96.0778 41.3 96.3778 41.536 96.5858 41.84C96.8018 42.144 96.9098 42.5 96.9098 42.908C96.9098 43.316 96.8018 43.672 96.5858 43.976C96.3778 44.28 96.0778 44.516 95.6858 44.684C95.3018 44.852 94.8458 44.936 94.3178 44.936C93.4858 44.936 92.8458 44.752 92.3978 44.384C91.9578 44.008 91.7378 43.516 91.7378 42.908C91.7378 42.5 91.8458 42.144 92.0618 41.84C92.2778 41.536 92.5778 41.3 92.9618 41.132C93.3538 40.964 93.8058 40.88 94.3178 40.88ZM94.3178 41.78C93.9498 41.78 93.6418 41.884 93.3938 42.092C93.1538 42.292 93.0338 42.564 93.0338 42.908C93.0338 43.252 93.1538 43.528 93.3938 43.736C93.6418 43.944 93.9498 44.048 94.3178 44.048C94.6938 44.048 95.0018 43.944 95.2418 43.736C95.4898 43.528 95.6138 43.252 95.6138 42.908C95.6138 42.564 95.4898 42.292 95.2418 42.092C95.0018 41.884 94.6938 41.78 94.3178 41.78ZM99.2143 39.992C98.9343 39.992 98.7183 39.924 98.5663 39.788C98.4223 39.644 98.3503 39.444 98.3503 39.188C98.3503 38.932 98.4223 38.736 98.5663 38.6C98.7183 38.464 98.9343 38.396 99.2143 38.396C99.4863 38.396 99.6943 38.464 99.8383 38.6C99.9903 38.736 100.066 38.932 100.066 39.188C100.066 39.444 99.9903 39.644 99.8383 39.788C99.6943 39.924 99.4863 39.992 99.2143 39.992ZM99.8503 41V47H98.5663V41H99.8503ZM104.139 47.12C103.539 47.12 102.991 47.004 102.495 46.772C101.999 46.54 101.607 46.212 101.319 45.788L102.207 45.02C102.383 45.348 102.635 45.612 102.963 45.812C103.299 46.004 103.699 46.1 104.163 46.1C104.531 46.1 104.823 46.036 105.039 45.908C105.255 45.78 105.363 45.6 105.363 45.368C105.363 45.216 105.311 45.084 105.207 44.972C105.111 44.852 104.923 44.76 104.643 44.696L103.383 44.432C102.743 44.304 102.287 44.1 102.015 43.82C101.743 43.532 101.607 43.168 101.607 42.728C101.607 42.4 101.703 42.096 101.895 41.816C102.087 41.536 102.367 41.312 102.735 41.144C103.111 40.968 103.559 40.88 104.079 40.88C104.679 40.88 105.191 40.988 105.615 41.204C106.039 41.412 106.363 41.712 106.587 42.104L105.699 42.848C105.547 42.528 105.323 42.292 105.027 42.14C104.731 41.98 104.423 41.9 104.103 41.9C103.847 41.9 103.627 41.932 103.443 41.996C103.259 42.06 103.119 42.148 103.023 42.26C102.927 42.372 102.879 42.504 102.879 42.656C102.879 42.816 102.939 42.956 103.059 43.076C103.179 43.196 103.395 43.288 103.707 43.352L105.075 43.64C105.651 43.752 106.055 43.944 106.287 44.216C106.527 44.48 106.647 44.804 106.647 45.188C106.647 45.572 106.547 45.912 106.347 46.208C106.147 46.496 105.859 46.72 105.483 46.88C105.107 47.04 104.659 47.12 104.139 47.12ZM109.963 39.236V45.2C109.963 45.496 110.039 45.712 110.191 45.848C110.351 45.984 110.563 46.052 110.827 46.052C111.043 46.052 111.231 46.02 111.391 45.956C111.551 45.884 111.699 45.788 111.835 45.668L112.123 46.604C111.939 46.764 111.711 46.892 111.439 46.988C111.175 47.076 110.879 47.12 110.551 47.12C110.207 47.12 109.891 47.064 109.603 46.952C109.315 46.84 109.091 46.66 108.931 46.412C108.771 46.156 108.687 45.824 108.679 45.416V39.596L109.963 39.236ZM112.027 41V42.008H107.527V41H112.027ZM115.577 47.12C114.977 47.12 114.429 47.004 113.933 46.772C113.437 46.54 113.045 46.212 112.757 45.788L113.645 45.02C113.821 45.348 114.073 45.612 114.401 45.812C114.737 46.004 115.137 46.1 115.601 46.1C115.969 46.1 116.261 46.036 116.477 45.908C116.693 45.78 116.801 45.6 116.801 45.368C116.801 45.216 116.749 45.084 116.645 44.972C116.549 44.852 116.361 44.76 116.081 44.696L114.821 44.432C114.181 44.304 113.725 44.1 113.453 43.82C113.181 43.532 113.045 43.168 113.045 42.728C113.045 42.4 113.141 42.096 113.333 41.816C113.525 41.536 113.805 41.312 114.173 41.144C114.549 40.968 114.997 40.88 115.517 40.88C116.117 40.88 116.629 40.988 117.053 41.204C117.477 41.412 117.801 41.712 118.025 42.104L117.137 42.848C116.985 42.528 116.761 42.292 116.465 42.14C116.169 41.98 115.861 41.9 115.541 41.9C115.285 41.9 115.065 41.932 114.881 41.996C114.697 42.06 114.557 42.148 114.461 42.26C114.365 42.372 114.317 42.504 114.317 42.656C114.317 42.816 114.377 42.956 114.497 43.076C114.617 43.196 114.833 43.288 115.145 43.352L116.513 43.64C117.089 43.752 117.493 43.944 117.725 44.216C117.965 44.48 118.085 44.804 118.085 45.188C118.085 45.572 117.985 45.912 117.785 46.208C117.585 46.496 117.297 46.72 116.921 46.88C116.545 47.04 116.097 47.12 115.577 47.12Z" fill="#3D3D3D"/>
<path d="M76.124 23.8225L74.825 24.5725M79.4379 26.5623L79.0719 27.9283M83.6778 25.8465L84.4278 27.1455M86.3661 22.5623L87.7321 22.9283M74.0719 19.2681L75.4379 19.6341" stroke="#801FEF" stroke-width="1.5" stroke-linecap="round" stroke-linejoin="round"/>
<path opacity="0.4" d="M80.7223 21.9718C78.4231 21.4461 76.0538 8.87465 77.3974 8.11046C78.9211 7.24379 81.7396 11.0472 82.7082 11.9932C83.2906 12.5622 83.5907 12.6313 84.393 12.3768C88.0264 11.2243 89.8355 10.6544 90.3397 11.445C91.1434 12.705 82.9662 22.4849 80.7223 21.9718Z" fill="#801FEF"/>
<path d="M80.7223 21.9718C78.4231 21.4461 76.0538 8.87465 77.3974 8.11046C78.9211 7.24379 81.7396 11.0472 82.7082 11.9932C83.2906 12.5622 83.5907 12.6313 84.393 12.3768C88.0264 11.2243 89.8355 10.6544 90.3397 11.445C91.1434 12.705 82.9662 22.4849 80.7223 21.9718Z" stroke="#801FEF" stroke-width="1.5"/>
</svg>
