<svg width="106" height="59" viewBox="0 0 106 59" fill="none" xmlns="http://www.w3.org/2000/svg">
<rect x="0.5" y="0.5" width="105" height="27" rx="3.5" fill="#E2F0FF"/>
<rect x="0.5" y="0.5" width="105" height="27" rx="3.5" stroke="#007BFF"/>
<path d="M23.8786 10.08V14.964C23.8786 16.012 23.6026 16.8 23.0506 17.328C22.4986 17.856 21.6946 18.12 20.6386 18.12C19.5986 18.12 18.7986 17.856 18.2386 17.328C17.6866 16.8 17.4106 16.012 17.4106 14.964V10.08H18.6946V14.808C18.6946 15.552 18.8546 16.104 19.1746 16.464C19.4946 16.824 19.9826 17.004 20.6386 17.004C21.3026 17.004 21.7946 16.824 22.1146 16.464C22.4346 16.104 22.5946 15.552 22.5946 14.808V10.08H23.8786ZM27.3584 10.08V18H26.0744V10.08H27.3584ZM36.4056 10.08C37.6456 10.08 38.6096 10.424 39.2976 11.112C39.9936 11.792 40.3416 12.768 40.3416 14.04C40.3416 15.312 39.9936 16.292 39.2976 16.98C38.6096 17.66 37.6456 18 36.4056 18H33.6096V10.08H36.4056ZM36.4056 16.908C37.2456 16.908 37.8856 16.66 38.3256 16.164C38.7736 15.66 38.9976 14.952 38.9976 14.04C38.9976 13.128 38.7736 12.424 38.3256 11.928C37.8856 11.424 37.2456 11.172 36.4056 11.172H34.8936V16.908H36.4056ZM44.7063 18.12C44.1063 18.12 43.5783 17.996 43.1223 17.748C42.6663 17.5 42.3103 17.144 42.0543 16.68C41.8063 16.208 41.6823 15.648 41.6823 15C41.6823 14.352 41.8063 13.796 42.0543 13.332C42.3103 12.86 42.6623 12.5 43.1103 12.252C43.5583 12.004 44.0663 11.88 44.6343 11.88C45.2183 11.88 45.7143 12 46.1223 12.24C46.5303 12.48 46.8423 12.808 47.0583 13.224C47.2743 13.64 47.3823 14.112 47.3823 14.64C47.3823 14.784 47.3783 14.92 47.3703 15.048C47.3623 15.176 47.3503 15.288 47.3343 15.384H42.5103V14.4H46.7703L46.1343 14.592C46.1343 14.048 45.9983 13.632 45.7263 13.344C45.4543 13.048 45.0823 12.9 44.6103 12.9C44.2663 12.9 43.9663 12.98 43.7103 13.14C43.4543 13.3 43.2583 13.54 43.1223 13.86C42.9863 14.172 42.9183 14.556 42.9183 15.012C42.9183 15.46 42.9903 15.84 43.1343 16.152C43.2783 16.464 43.4823 16.7 43.7463 16.86C44.0103 17.02 44.3223 17.1 44.6823 17.1C45.0823 17.1 45.4063 17.024 45.6543 16.872C45.9023 16.72 46.0983 16.508 46.2423 16.236L47.2623 16.716C47.1183 17.004 46.9223 17.256 46.6743 17.472C46.4343 17.68 46.1463 17.84 45.8103 17.952C45.4743 18.064 45.1063 18.12 44.7063 18.12ZM51.2838 18.12C50.6838 18.12 50.1358 18.004 49.6398 17.772C49.1438 17.54 48.7518 17.212 48.4638 16.788L49.3518 16.02C49.5278 16.348 49.7798 16.612 50.1078 16.812C50.4438 17.004 50.8438 17.1 51.3078 17.1C51.6758 17.1 51.9678 17.036 52.1838 16.908C52.3998 16.78 52.5078 16.6 52.5078 16.368C52.5078 16.216 52.4558 16.084 52.3518 15.972C52.2558 15.852 52.0678 15.76 51.7878 15.696L50.5278 15.432C49.8878 15.304 49.4318 15.1 49.1598 14.82C48.8878 14.532 48.7518 14.168 48.7518 13.728C48.7518 13.4 48.8478 13.096 49.0398 12.816C49.2318 12.536 49.5118 12.312 49.8798 12.144C50.2558 11.968 50.7038 11.88 51.2238 11.88C51.8238 11.88 52.3358 11.988 52.7598 12.204C53.1838 12.412 53.5078 12.712 53.7318 13.104L52.8438 13.848C52.6918 13.528 52.4678 13.292 52.1718 13.14C51.8758 12.98 51.5678 12.9 51.2478 12.9C50.9918 12.9 50.7718 12.932 50.5878 12.996C50.4038 13.06 50.2638 13.148 50.1678 13.26C50.0718 13.372 50.0238 13.504 50.0238 13.656C50.0238 13.816 50.0838 13.956 50.2038 14.076C50.3238 14.196 50.5398 14.288 50.8518 14.352L52.2198 14.64C52.7958 14.752 53.1998 14.944 53.4318 15.216C53.6718 15.48 53.7918 15.804 53.7918 16.188C53.7918 16.572 53.6918 16.912 53.4918 17.208C53.2918 17.496 53.0038 17.72 52.6278 17.88C52.2518 18.04 51.8038 18.12 51.2838 18.12ZM56.0034 10.992C55.7234 10.992 55.5074 10.924 55.3554 10.788C55.2114 10.644 55.1394 10.444 55.1394 10.188C55.1394 9.932 55.2114 9.736 55.3554 9.6C55.5074 9.464 55.7234 9.396 56.0034 9.396C56.2754 9.396 56.4834 9.464 56.6274 9.6C56.7794 9.736 56.8554 9.932 56.8554 10.188C56.8554 10.444 56.7794 10.644 56.6274 10.788C56.4834 10.924 56.2754 10.992 56.0034 10.992ZM56.6394 12V18H55.3554V12H56.6394ZM63.9283 10.74L64.1323 11.748C64.1083 11.748 64.0843 11.748 64.0603 11.748C64.0363 11.74 64.0123 11.736 63.9883 11.736C63.6043 11.736 63.3123 11.82 63.1123 11.988C62.9123 12.148 62.8123 12.384 62.8123 12.696L62.1883 12.408C62.1883 12.088 62.2563 11.804 62.3923 11.556C62.5283 11.3 62.7203 11.1 62.9683 10.956C63.2243 10.812 63.5123 10.74 63.8323 10.74C63.8483 10.74 63.8643 10.74 63.8803 10.74C63.8963 10.74 63.9123 10.74 63.9283 10.74ZM62.0323 17.064C62.6403 17.064 63.1123 17.2 63.4483 17.472C63.7843 17.736 63.9523 18.104 63.9523 18.576C63.9523 18.992 63.8203 19.348 63.5563 19.644C63.2923 19.948 62.9323 20.18 62.4763 20.34C62.0283 20.5 61.5123 20.58 60.9283 20.58C59.9443 20.58 59.2163 20.428 58.7443 20.124C58.2723 19.82 58.0363 19.44 58.0363 18.984C58.0363 18.664 58.1483 18.384 58.3723 18.144C58.6043 17.904 58.9923 17.768 59.5363 17.736L59.4643 17.928C59.1283 17.856 58.8563 17.728 58.6483 17.544C58.4483 17.352 58.3483 17.084 58.3483 16.74C58.3483 16.396 58.4803 16.104 58.7443 15.864C59.0083 15.624 59.3803 15.484 59.8603 15.444L60.5323 15.768H60.3883C60.0203 15.8 59.7603 15.884 59.6083 16.02C59.4563 16.156 59.3803 16.308 59.3803 16.476C59.3803 16.676 59.4523 16.824 59.5963 16.92C59.7483 17.016 59.9603 17.064 60.2323 17.064H62.0323ZM60.9283 19.62C61.3683 19.62 61.7283 19.576 62.0083 19.488C62.2963 19.408 62.5083 19.3 62.6443 19.164C62.7883 19.036 62.8603 18.892 62.8603 18.732C62.8603 18.548 62.7843 18.4 62.6323 18.288C62.4883 18.176 62.2243 18.12 61.8403 18.12H59.9083C59.6843 18.12 59.4963 18.176 59.3443 18.288C59.1923 18.408 59.1163 18.568 59.1163 18.768C59.1163 19.032 59.2763 19.24 59.5963 19.392C59.9163 19.544 60.3603 19.62 60.9283 19.62ZM60.8803 11.88C61.4083 11.88 61.8643 11.964 62.2483 12.132C62.6403 12.3 62.9403 12.536 63.1483 12.84C63.3643 13.144 63.4723 13.5 63.4723 13.908C63.4723 14.316 63.3643 14.672 63.1483 14.976C62.9403 15.28 62.6403 15.516 62.2483 15.684C61.8643 15.852 61.4083 15.936 60.8803 15.936C60.0483 15.936 59.4083 15.752 58.9603 15.384C58.5203 15.008 58.3003 14.516 58.3003 13.908C58.3003 13.5 58.4083 13.144 58.6243 12.84C58.8403 12.536 59.1403 12.3 59.5243 12.132C59.9163 11.964 60.3683 11.88 60.8803 11.88ZM60.8803 12.78C60.5123 12.78 60.2043 12.884 59.9563 13.092C59.7163 13.292 59.5963 13.564 59.5963 13.908C59.5963 14.252 59.7163 14.528 59.9563 14.736C60.2043 14.944 60.5123 15.048 60.8803 15.048C61.2563 15.048 61.5643 14.944 61.8043 14.736C62.0523 14.528 62.1763 14.252 62.1763 13.908C62.1763 13.564 62.0523 13.292 61.8043 13.092C61.5643 12.884 61.2563 12.78 60.8803 12.78ZM65.1288 18V12H66.2688L66.3528 13.56L66.1848 13.392C66.2968 13.048 66.4568 12.764 66.6648 12.54C66.8808 12.308 67.1328 12.14 67.4208 12.036C67.7168 11.932 68.0288 11.88 68.3568 11.88C68.7808 11.88 69.1608 11.964 69.4968 12.132C69.8408 12.292 70.1128 12.536 70.3128 12.864C70.5128 13.192 70.6128 13.608 70.6128 14.112V18H69.3288V14.508C69.3288 13.916 69.2048 13.508 68.9568 13.284C68.7168 13.052 68.4128 12.936 68.0448 12.936C67.7808 12.936 67.5248 13 67.2768 13.128C67.0288 13.248 66.8208 13.444 66.6528 13.716C66.4928 13.988 66.4128 14.352 66.4128 14.808V18H65.1288ZM75.1985 18.12C74.5985 18.12 74.0705 17.996 73.6145 17.748C73.1585 17.5 72.8025 17.144 72.5465 16.68C72.2985 16.208 72.1745 15.648 72.1745 15C72.1745 14.352 72.2985 13.796 72.5465 13.332C72.8025 12.86 73.1545 12.5 73.6025 12.252C74.0505 12.004 74.5585 11.88 75.1265 11.88C75.7105 11.88 76.2065 12 76.6145 12.24C77.0225 12.48 77.3345 12.808 77.5505 13.224C77.7665 13.64 77.8745 14.112 77.8745 14.64C77.8745 14.784 77.8705 14.92 77.8625 15.048C77.8545 15.176 77.8425 15.288 77.8265 15.384H73.0025V14.4H77.2625L76.6265 14.592C76.6265 14.048 76.4905 13.632 76.2185 13.344C75.9465 13.048 75.5745 12.9 75.1025 12.9C74.7585 12.9 74.4585 12.98 74.2025 13.14C73.9465 13.3 73.7505 13.54 73.6145 13.86C73.4785 14.172 73.4105 14.556 73.4105 15.012C73.4105 15.46 73.4825 15.84 73.6265 16.152C73.7705 16.464 73.9745 16.7 74.2385 16.86C74.5025 17.02 74.8145 17.1 75.1745 17.1C75.5745 17.1 75.8985 17.024 76.1465 16.872C76.3945 16.72 76.5905 16.508 76.7345 16.236L77.7545 16.716C77.6105 17.004 77.4145 17.256 77.1665 17.472C76.9265 17.68 76.6385 17.84 76.3025 17.952C75.9665 18.064 75.5985 18.12 75.1985 18.12ZM79.496 18V12H80.588L80.708 13.08C80.868 12.688 81.104 12.392 81.416 12.192C81.736 11.984 82.128 11.88 82.592 11.88C82.712 11.88 82.832 11.892 82.952 11.916C83.072 11.932 83.172 11.96 83.252 12L83.072 13.128C82.984 13.096 82.884 13.072 82.772 13.056C82.668 13.032 82.524 13.02 82.34 13.02C82.092 13.02 81.848 13.088 81.608 13.224C81.368 13.352 81.168 13.548 81.008 13.812C80.856 14.076 80.78 14.412 80.78 14.82V18H79.496ZM86.5338 18.12C85.9338 18.12 85.3858 18.004 84.8898 17.772C84.3938 17.54 84.0018 17.212 83.7138 16.788L84.6018 16.02C84.7778 16.348 85.0298 16.612 85.3578 16.812C85.6938 17.004 86.0938 17.1 86.5578 17.1C86.9258 17.1 87.2178 17.036 87.4338 16.908C87.6498 16.78 87.7578 16.6 87.7578 16.368C87.7578 16.216 87.7058 16.084 87.6018 15.972C87.5058 15.852 87.3178 15.76 87.0378 15.696L85.7778 15.432C85.1378 15.304 84.6818 15.1 84.4098 14.82C84.1378 14.532 84.0018 14.168 84.0018 13.728C84.0018 13.4 84.0978 13.096 84.2898 12.816C84.4818 12.536 84.7618 12.312 85.1298 12.144C85.5058 11.968 85.9538 11.88 86.4738 11.88C87.0738 11.88 87.5858 11.988 88.0098 12.204C88.4338 12.412 88.7578 12.712 88.9818 13.104L88.0938 13.848C87.9418 13.528 87.7178 13.292 87.4218 13.14C87.1258 12.98 86.8178 12.9 86.4978 12.9C86.2418 12.9 86.0218 12.932 85.8378 12.996C85.6538 13.06 85.5138 13.148 85.4178 13.26C85.3218 13.372 85.2738 13.504 85.2738 13.656C85.2738 13.816 85.3338 13.956 85.4538 14.076C85.5738 14.196 85.7898 14.288 86.1018 14.352L87.4698 14.64C88.0458 14.752 88.4498 14.944 88.6818 15.216C88.9218 15.48 89.0418 15.804 89.0418 16.188C89.0418 16.572 88.9418 16.912 88.7418 17.208C88.5418 17.496 88.2538 17.72 87.8778 17.88C87.5018 18.04 87.0538 18.12 86.5338 18.12Z" fill="#3D3D3D"/>
<path d="M28.7089 37.0486L30.1221 36.5456M25.9446 33.755L26.5515 32.4777M21.6452 33.693L21.1423 32.2798M18.4077 36.4373L17.1303 35.8305M29.9043 41.8988L28.6269 41.292" stroke="#007BFF" stroke-width="1.5" stroke-linecap="round" stroke-linejoin="round"/>
<path opacity="0.4" d="M23.8524 38.038C26.0188 38.9705 26.0775 51.7631 24.6179 52.2719C22.9627 52.849 20.8778 48.5989 20.0961 47.4934C19.6261 46.8286 19.3434 46.7064 18.5084 46.8117C14.7265 47.2887 12.8443 47.5223 12.4912 46.6537C11.9284 45.2692 21.7382 37.1279 23.8524 38.038Z" fill="#007BFF"/>
<path d="M23.8524 38.038C26.0188 38.9705 26.0775 51.7631 24.6179 52.2719C22.9627 52.849 20.8778 48.5989 20.0961 47.4934C19.6261 46.8286 19.3434 46.7064 18.5084 46.8117C14.7265 47.2887 12.8443 47.5223 12.4912 46.6537C11.9284 45.2692 21.7382 37.1279 23.8524 38.038Z" stroke="#007BFF" stroke-width="1.5"/>
</svg>
