<svg width="102" height="52" viewBox="0 0 102 52" fill="none" xmlns="http://www.w3.org/2000/svg">
<rect x="0.5" y="24.5" width="101" height="27" rx="3.5" fill="#E0FFE7"/>
<rect x="0.5" y="24.5" width="101" height="27" rx="3.5" stroke="#28A745"/>
<path d="M23.947 34.08V38.964C23.947 40.012 23.671 40.8 23.119 41.328C22.567 41.856 21.763 42.12 20.707 42.12C19.667 42.12 18.867 41.856 18.307 41.328C17.755 40.8 17.479 40.012 17.479 38.964V34.08H18.763V38.808C18.763 39.552 18.923 40.104 19.243 40.464C19.563 40.824 20.051 41.004 20.707 41.004C21.371 41.004 21.863 40.824 22.183 40.464C22.503 40.104 22.663 39.552 22.663 38.808V34.08H23.947ZM32.1068 42H30.5948L28.6388 38.952L26.6948 42H25.2188L27.9668 37.98L25.4348 34.08H26.9468L28.7588 36.96L30.5948 34.08H31.9988L29.4308 37.932L32.1068 42ZM43.5586 42H42.2026L41.4466 39.924H38.1226L37.3666 42H36.0466L39.0346 34.08H40.5706L43.5586 42ZM38.4826 38.88H41.0866L39.7906 35.184L38.4826 38.88ZM44.7831 42V36H45.9231L46.0071 37.56L45.8391 37.392C45.9511 37.048 46.1111 36.764 46.3191 36.54C46.5351 36.308 46.7871 36.14 47.0751 36.036C47.3711 35.932 47.6831 35.88 48.0111 35.88C48.4351 35.88 48.8151 35.964 49.1511 36.132C49.4951 36.292 49.7671 36.536 49.9671 36.864C50.1671 37.192 50.2671 37.608 50.2671 38.112V42H48.9831V38.508C48.9831 37.916 48.8591 37.508 48.6111 37.284C48.3711 37.052 48.0671 36.936 47.6991 36.936C47.4351 36.936 47.1791 37 46.9311 37.128C46.6831 37.248 46.4751 37.444 46.3071 37.716C46.1471 37.988 46.0671 38.352 46.0671 38.808V42H44.7831ZM55.6808 38.148C55.6808 37.748 55.5688 37.44 55.3448 37.224C55.1288 37 54.8288 36.888 54.4448 36.888C54.0848 36.888 53.7768 36.972 53.5208 37.14C53.2648 37.308 53.0768 37.58 52.9568 37.956L51.8768 37.5C52.0288 37.012 52.3248 36.62 52.7648 36.324C53.2128 36.028 53.7888 35.88 54.4928 35.88C54.9728 35.88 55.3968 35.96 55.7648 36.12C56.1328 36.272 56.4208 36.504 56.6288 36.816C56.8448 37.128 56.9528 37.528 56.9528 38.016V40.692C56.9528 40.988 57.1008 41.136 57.3968 41.136C57.5408 41.136 57.6808 41.116 57.8168 41.076L57.7448 41.964C57.5608 42.052 57.3288 42.096 57.0488 42.096C56.7928 42.096 56.5608 42.052 56.3528 41.964C56.1528 41.868 55.9928 41.728 55.8728 41.544C55.7608 41.352 55.7048 41.116 55.7048 40.836V40.752L55.9688 40.74C55.8968 41.052 55.7488 41.312 55.5248 41.52C55.3008 41.72 55.0408 41.872 54.7448 41.976C54.4488 42.072 54.1488 42.12 53.8448 42.12C53.4688 42.12 53.1288 42.06 52.8248 41.94C52.5288 41.82 52.2928 41.64 52.1168 41.4C51.9488 41.152 51.8648 40.848 51.8648 40.488C51.8648 40.04 52.0088 39.672 52.2968 39.384C52.5928 39.096 53.0088 38.9 53.5448 38.796L55.8728 38.34L55.8608 39.24L54.1688 39.588C53.8328 39.652 53.5808 39.744 53.4128 39.864C53.2448 39.984 53.1608 40.16 53.1608 40.392C53.1608 40.616 53.2448 40.796 53.4128 40.932C53.5888 41.06 53.8208 41.124 54.1088 41.124C54.3088 41.124 54.5008 41.1 54.6848 41.052C54.8768 41.004 55.0488 40.928 55.2008 40.824C55.3528 40.712 55.4688 40.572 55.5488 40.404C55.6368 40.228 55.6808 40.02 55.6808 39.78V38.148ZM60.3045 33.3V40.32C60.3045 40.616 60.3565 40.82 60.4605 40.932C60.5645 41.044 60.7365 41.1 60.9765 41.1C61.1205 41.1 61.2405 41.092 61.3365 41.076C61.4405 41.052 61.5685 41.012 61.7205 40.956L61.5765 41.916C61.4405 41.98 61.2845 42.028 61.1085 42.06C60.9325 42.1 60.7565 42.12 60.5805 42.12C60.0445 42.12 59.6485 41.984 59.3925 41.712C59.1445 41.432 59.0205 41.004 59.0205 40.428V33.3H60.3045ZM67.7933 36L65.1653 42.708C64.9893 43.172 64.7973 43.54 64.5893 43.812C64.3893 44.084 64.1573 44.28 63.8933 44.4C63.6293 44.52 63.3213 44.58 62.9693 44.58C62.6813 44.58 62.4133 44.54 62.1653 44.46C61.9253 44.388 61.7133 44.288 61.5293 44.16L61.8413 43.164C61.9933 43.292 62.1533 43.388 62.3213 43.452C62.4973 43.516 62.6853 43.548 62.8853 43.548C63.1013 43.548 63.2933 43.488 63.4613 43.368C63.6373 43.256 63.7933 43.028 63.9293 42.684L64.1933 42.036L63.5573 40.548L61.6853 36H63.1253L64.4573 39.768L64.8053 40.896L65.2013 39.66L66.4613 36H67.7933ZM71.028 42.12C70.428 42.12 69.88 42.004 69.384 41.772C68.888 41.54 68.496 41.212 68.208 40.788L69.096 40.02C69.272 40.348 69.524 40.612 69.852 40.812C70.188 41.004 70.588 41.1 71.052 41.1C71.42 41.1 71.712 41.036 71.928 40.908C72.144 40.78 72.252 40.6 72.252 40.368C72.252 40.216 72.2 40.084 72.096 39.972C72 39.852 71.812 39.76 71.532 39.696L70.272 39.432C69.632 39.304 69.176 39.1 68.904 38.82C68.632 38.532 68.496 38.168 68.496 37.728C68.496 37.4 68.592 37.096 68.784 36.816C68.976 36.536 69.256 36.312 69.624 36.144C70 35.968 70.448 35.88 70.968 35.88C71.568 35.88 72.08 35.988 72.504 36.204C72.928 36.412 73.252 36.712 73.476 37.104L72.588 37.848C72.436 37.528 72.212 37.292 71.916 37.14C71.62 36.98 71.312 36.9 70.992 36.9C70.736 36.9 70.516 36.932 70.332 36.996C70.148 37.06 70.008 37.148 69.912 37.26C69.816 37.372 69.768 37.504 69.768 37.656C69.768 37.816 69.828 37.956 69.948 38.076C70.068 38.196 70.284 38.288 70.596 38.352L71.964 38.64C72.54 38.752 72.944 38.944 73.176 39.216C73.416 39.48 73.536 39.804 73.536 40.188C73.536 40.572 73.436 40.912 73.236 41.208C73.036 41.496 72.748 41.72 72.372 41.88C71.996 42.04 71.548 42.12 71.028 42.12ZM76.8515 34.236V40.2C76.8515 40.496 76.9275 40.712 77.0795 40.848C77.2395 40.984 77.4515 41.052 77.7155 41.052C77.9315 41.052 78.1195 41.02 78.2795 40.956C78.4395 40.884 78.5875 40.788 78.7235 40.668L79.0115 41.604C78.8275 41.764 78.5995 41.892 78.3275 41.988C78.0635 42.076 77.7675 42.12 77.4395 42.12C77.0955 42.12 76.7795 42.064 76.4915 41.952C76.2035 41.84 75.9795 41.66 75.8195 41.412C75.6595 41.156 75.5755 40.824 75.5675 40.416V34.596L76.8515 34.236ZM78.9155 36V37.008H74.4155V36H78.9155ZM82.4655 42.12C81.8655 42.12 81.3175 42.004 80.8215 41.772C80.3255 41.54 79.9335 41.212 79.6455 40.788L80.5335 40.02C80.7095 40.348 80.9615 40.612 81.2895 40.812C81.6255 41.004 82.0255 41.1 82.4895 41.1C82.8575 41.1 83.1495 41.036 83.3655 40.908C83.5815 40.78 83.6895 40.6 83.6895 40.368C83.6895 40.216 83.6375 40.084 83.5335 39.972C83.4375 39.852 83.2495 39.76 82.9695 39.696L81.7095 39.432C81.0695 39.304 80.6135 39.1 80.3415 38.82C80.0695 38.532 79.9335 38.168 79.9335 37.728C79.9335 37.4 80.0295 37.096 80.2215 36.816C80.4135 36.536 80.6935 36.312 81.0615 36.144C81.4375 35.968 81.8855 35.88 82.4055 35.88C83.0055 35.88 83.5175 35.988 83.9415 36.204C84.3655 36.412 84.6895 36.712 84.9135 37.104L84.0255 37.848C83.8735 37.528 83.6495 37.292 83.3535 37.14C83.0575 36.98 82.7495 36.9 82.4295 36.9C82.1735 36.9 81.9535 36.932 81.7695 36.996C81.5855 37.06 81.4455 37.148 81.3495 37.26C81.2535 37.372 81.2055 37.504 81.2055 37.656C81.2055 37.816 81.2655 37.956 81.3855 38.076C81.5055 38.196 81.7215 38.288 82.0335 38.352L83.4015 38.64C83.9775 38.752 84.3815 38.944 84.6135 39.216C84.8535 39.48 84.9735 39.804 84.9735 40.188C84.9735 40.572 84.8735 40.912 84.6735 41.208C84.4735 41.496 84.1855 41.72 83.8095 41.88C83.4335 42.04 82.9855 42.12 82.4655 42.12Z" fill="#3D3D3D"/>
<path d="M14.9703 20.5L14.9703 22M19 19L20 20M20.5 14.9702L22 14.9703M19 11L20 10M10 20L11 19" stroke="#28A745" stroke-width="1.5" stroke-linecap="round" stroke-linejoin="round"/>
<path opacity="0.4" d="M15.6668 15.5926C14.0619 17.3209 1.99 13.0871 2 11.5414C2.0113 9.7885 6.7144 9.2493 8.018 8.8835C8.8019 8.6636 9.0118 8.4382 9.1926 7.6162C10.0112 3.8933 10.4222 2.0417 11.3589 2.0003C12.852 1.9343 17.233 13.9059 15.6668 15.5926Z" fill="#28A745"/>
<path d="M15.6668 15.5926C14.0619 17.3209 1.99 13.0871 2 11.5414C2.0113 9.7885 6.7144 9.2493 8.018 8.8835C8.8019 8.6636 9.0118 8.4382 9.1926 7.6162C10.0112 3.8933 10.4222 2.0417 11.3589 2.0003C12.852 1.9343 17.233 13.9059 15.6668 15.5926Z" stroke="#28A745" stroke-width="1.5"/>
</svg>
