<svg width="395" height="457" viewBox="0 0 395 457" fill="none" xmlns="http://www.w3.org/2000/svg">
<rect x="0.5" y="1" width="394" height="455" rx="15.5" fill="white"/>
<rect x="0.5" y="1" width="394" height="455" rx="15.5" stroke="#E4E4E7"/>
<path d="M24.63 38.2C24.63 36.964 24.906 35.86 25.458 34.888C26.022 33.904 26.784 33.142 27.744 32.602C28.716 32.05 29.802 31.774 31.002 31.774C32.406 31.774 33.636 32.134 34.692 32.854C35.748 33.574 36.486 34.57 36.906 35.842H34.008C33.72 35.242 33.312 34.792 32.784 34.492C32.268 34.192 31.668 34.042 30.984 34.042C30.252 34.042 29.598 34.216 29.022 34.564C28.458 34.9 28.014 35.38 27.69 36.004C27.378 36.628 27.222 37.36 27.222 38.2C27.222 39.028 27.378 39.76 27.69 40.396C28.014 41.02 28.458 41.506 29.022 41.854C29.598 42.19 30.252 42.358 30.984 42.358C31.668 42.358 32.268 42.208 32.784 41.908C33.312 41.596 33.72 41.14 34.008 40.54H36.906C36.486 41.824 35.748 42.826 34.692 43.546C33.648 44.254 32.418 44.608 31.002 44.608C29.802 44.608 28.716 44.338 27.744 43.798C26.784 43.246 26.022 42.484 25.458 41.512C24.906 40.54 24.63 39.436 24.63 38.2ZM43.4864 44.662C42.5264 44.662 41.6624 44.452 40.8944 44.032C40.1264 43.6 39.5204 42.994 39.0764 42.214C38.6444 41.434 38.4284 40.534 38.4284 39.514C38.4284 38.494 38.6504 37.594 39.0944 36.814C39.5504 36.034 40.1684 35.434 40.9484 35.014C41.7284 34.582 42.5984 34.366 43.5584 34.366C44.5184 34.366 45.3884 34.582 46.1684 35.014C46.9484 35.434 47.5604 36.034 48.0044 36.814C48.4604 37.594 48.6884 38.494 48.6884 39.514C48.6884 40.534 48.4544 41.434 47.9864 42.214C47.5304 42.994 46.9064 43.6 46.1144 44.032C45.3344 44.452 44.4584 44.662 43.4864 44.662ZM43.4864 42.466C43.9424 42.466 44.3684 42.358 44.7644 42.142C45.1724 41.914 45.4964 41.578 45.7364 41.134C45.9764 40.69 46.0964 40.15 46.0964 39.514C46.0964 38.566 45.8444 37.84 45.3404 37.336C44.8484 36.82 44.2424 36.562 43.5224 36.562C42.8024 36.562 42.1964 36.82 41.7044 37.336C41.2244 37.84 40.9844 38.566 40.9844 39.514C40.9844 40.462 41.2184 41.194 41.6864 41.71C42.1664 42.214 42.7664 42.466 43.4864 42.466ZM56.0629 34.384C57.2509 34.384 58.2109 34.762 58.9429 35.518C59.6749 36.262 60.0409 37.306 60.0409 38.65V44.5H57.5209V38.992C57.5209 38.2 57.3229 37.594 56.9269 37.174C56.5309 36.742 55.9909 36.526 55.3069 36.526C54.6109 36.526 54.0589 36.742 53.6509 37.174C53.2549 37.594 53.0569 38.2 53.0569 38.992V44.5H50.5369V34.528H53.0569V35.77C53.3929 35.338 53.8189 35.002 54.3349 34.762C54.8629 34.51 55.4389 34.384 56.0629 34.384ZM67.9633 34.384C69.1513 34.384 70.1113 34.762 70.8433 35.518C71.5753 36.262 71.9413 37.306 71.9413 38.65V44.5H69.4213V38.992C69.4213 38.2 69.2233 37.594 68.8273 37.174C68.4313 36.742 67.8913 36.526 67.2073 36.526C66.5113 36.526 65.9593 36.742 65.5513 37.174C65.1553 37.594 64.9573 38.2 64.9573 38.992V44.5H62.4373V34.528H64.9573V35.77C65.2933 35.338 65.7193 35.002 66.2353 34.762C66.7633 34.51 67.3393 34.384 67.9633 34.384ZM83.6077 39.298C83.6077 39.658 83.5837 39.982 83.5357 40.27H76.2457C76.3057 40.99 76.5577 41.554 77.0017 41.962C77.4457 42.37 77.9917 42.574 78.6397 42.574C79.5757 42.574 80.2417 42.172 80.6377 41.368H83.3557C83.0677 42.328 82.5157 43.12 81.6997 43.744C80.8837 44.356 79.8817 44.662 78.6937 44.662C77.7337 44.662 76.8697 44.452 76.1017 44.032C75.3457 43.6 74.7517 42.994 74.3197 42.214C73.8997 41.434 73.6897 40.534 73.6897 39.514C73.6897 38.482 73.8997 37.576 74.3197 36.796C74.7397 36.016 75.3277 35.416 76.0837 34.996C76.8397 34.576 77.7097 34.366 78.6937 34.366C79.6417 34.366 80.4877 34.57 81.2317 34.978C81.9877 35.386 82.5697 35.968 82.9777 36.724C83.3977 37.468 83.6077 38.326 83.6077 39.298ZM80.9977 38.578C80.9857 37.93 80.7517 37.414 80.2957 37.03C79.8397 36.634 79.2817 36.436 78.6217 36.436C77.9977 36.436 77.4697 36.628 77.0377 37.012C76.6177 37.384 76.3597 37.906 76.2637 38.578H80.9977ZM84.7991 39.514C84.7991 38.482 85.0091 37.582 85.4291 36.814C85.8491 36.034 86.4311 35.434 87.1751 35.014C87.9191 34.582 88.7711 34.366 89.7311 34.366C90.9671 34.366 91.9871 34.678 92.7911 35.302C93.6071 35.914 94.1531 36.778 94.4291 37.894H91.7111C91.5671 37.462 91.3211 37.126 90.9731 36.886C90.6371 36.634 90.2171 36.508 89.7131 36.508C88.9931 36.508 88.4231 36.772 88.0031 37.3C87.5831 37.816 87.3731 38.554 87.3731 39.514C87.3731 40.462 87.5831 41.2 88.0031 41.728C88.4231 42.244 88.9931 42.502 89.7131 42.502C90.7331 42.502 91.3991 42.046 91.7111 41.134H94.4291C94.1531 42.214 93.6071 43.072 92.7911 43.708C91.9751 44.344 90.9551 44.662 89.7311 44.662C88.7711 44.662 87.9191 44.452 87.1751 44.032C86.4311 43.6 85.8491 43 85.4291 42.232C85.0091 41.452 84.7991 40.546 84.7991 39.514ZM99.2092 36.598V41.422C99.2092 41.758 99.2872 42.004 99.4432 42.16C99.6112 42.304 99.8872 42.376 100.271 42.376H101.441V44.5H99.8572C97.7332 44.5 96.6712 43.468 96.6712 41.404V36.598H95.4832V34.528H96.6712V32.062H99.2092V34.528H101.441V36.598H99.2092ZM121.367 34.528L118.451 44.5H115.733L113.915 37.534L112.097 44.5H109.361L106.427 34.528H108.983L110.747 42.124L112.655 34.528H115.319L117.191 42.106L118.955 34.528H121.367ZM122.082 39.478C122.082 38.47 122.28 37.576 122.676 36.796C123.084 36.016 123.63 35.416 124.314 34.996C125.01 34.576 125.784 34.366 126.636 34.366C127.38 34.366 128.028 34.516 128.58 34.816C129.144 35.116 129.594 35.494 129.93 35.95V34.528H132.468V44.5H129.93V43.042C129.606 43.51 129.156 43.9 128.58 44.212C128.016 44.512 127.362 44.662 126.618 44.662C125.778 44.662 125.01 44.446 124.314 44.014C123.63 43.582 123.084 42.976 122.676 42.196C122.28 41.404 122.082 40.498 122.082 39.478ZM129.93 39.514C129.93 38.902 129.81 38.38 129.57 37.948C129.33 37.504 129.006 37.168 128.598 36.94C128.19 36.7 127.752 36.58 127.284 36.58C126.816 36.58 126.384 36.694 125.988 36.922C125.592 37.15 125.268 37.486 125.016 37.93C124.776 38.362 124.656 38.878 124.656 39.478C124.656 40.078 124.776 40.606 125.016 41.062C125.268 41.506 125.592 41.848 125.988 42.088C126.396 42.328 126.828 42.448 127.284 42.448C127.752 42.448 128.19 42.334 128.598 42.106C129.006 41.866 129.33 41.53 129.57 41.098C129.81 40.654 129.93 40.126 129.93 39.514ZM137.45 31.18V44.5H134.93V31.18H137.45ZM142.459 31.18V44.5H139.939V31.18H142.459ZM154.219 39.298C154.219 39.658 154.195 39.982 154.147 40.27H146.857C146.917 40.99 147.169 41.554 147.613 41.962C148.057 42.37 148.603 42.574 149.251 42.574C150.187 42.574 150.853 42.172 151.249 41.368H153.967C153.679 42.328 153.127 43.12 152.311 43.744C151.495 44.356 150.493 44.662 149.305 44.662C148.345 44.662 147.481 44.452 146.713 44.032C145.957 43.6 145.363 42.994 144.931 42.214C144.511 41.434 144.301 40.534 144.301 39.514C144.301 38.482 144.511 37.576 144.931 36.796C145.351 36.016 145.939 35.416 146.695 34.996C147.451 34.576 148.321 34.366 149.305 34.366C150.253 34.366 151.099 34.57 151.843 34.978C152.599 35.386 153.181 35.968 153.589 36.724C154.009 37.468 154.219 38.326 154.219 39.298ZM151.609 38.578C151.597 37.93 151.363 37.414 150.907 37.03C150.451 36.634 149.893 36.436 149.233 36.436C148.609 36.436 148.081 36.628 147.649 37.012C147.229 37.384 146.971 37.906 146.875 38.578H151.609ZM158.992 36.598V41.422C158.992 41.758 159.07 42.004 159.226 42.16C159.394 42.304 159.67 42.376 160.054 42.376H161.224V44.5H159.64C157.516 44.5 156.454 43.468 156.454 41.404V36.598H155.266V34.528H156.454V32.062H158.992V34.528H161.224V36.598H158.992Z" fill="#626262"/>
<path d="M30.352 76.74C28.8053 76.74 27.4773 76.2067 26.368 75.14C25.2693 74.0733 24.72 72.6333 24.72 70.82C24.72 69.604 24.9973 68.5373 25.552 67.62C26.1067 66.7027 26.8053 66.0253 27.648 65.588C28.4907 65.14 29.392 64.916 30.352 64.916C31.632 64.916 32.7093 65.2413 33.584 65.892C34.4693 66.532 35.056 67.4067 35.344 68.516L33.888 69.028C33.6747 68.1747 33.264 67.5187 32.656 67.06C32.048 66.5907 31.28 66.356 30.352 66.356C29.2427 66.356 28.2933 66.7507 27.504 67.54C26.7147 68.3187 26.32 69.412 26.32 70.82C26.32 72.228 26.7147 73.3267 27.504 74.116C28.2933 74.9053 29.2427 75.3 30.352 75.3C31.28 75.3 32.0533 75.0547 32.672 74.564C33.2907 74.0627 33.7227 73.4013 33.968 72.58L35.36 73.092C35.0507 74.1907 34.4533 75.076 33.568 75.748C32.6933 76.4093 31.6213 76.74 30.352 76.74ZM38.5515 74.676C39.0208 75.156 39.5915 75.396 40.2635 75.396C40.9355 75.396 41.5008 75.156 41.9595 74.676C42.4288 74.1853 42.6635 73.508 42.6635 72.644C42.6635 71.7907 42.4288 71.124 41.9595 70.644C41.5008 70.1533 40.9355 69.908 40.2635 69.908C39.5915 69.908 39.0208 70.1533 38.5515 70.644C38.0928 71.124 37.8635 71.7907 37.8635 72.644C37.8635 73.508 38.0928 74.1853 38.5515 74.676ZM37.4315 69.732C38.1782 68.9533 39.1222 68.564 40.2635 68.564C41.4048 68.564 42.3435 68.9533 43.0795 69.732C43.8262 70.5 44.1995 71.4707 44.1995 72.644C44.1995 73.828 43.8315 74.8093 43.0955 75.588C42.3595 76.356 41.4155 76.74 40.2635 76.74C39.1115 76.74 38.1675 76.356 37.4315 75.588C36.6955 74.8093 36.3275 73.828 36.3275 72.644C36.3275 71.4707 36.6955 70.5 37.4315 69.732ZM47.6278 72.052V76.5H46.1238V68.804H47.5958V69.908C48.1078 69.0227 48.8971 68.58 49.9638 68.58C50.8491 68.58 51.5264 68.8627 51.9958 69.428C52.4758 69.9933 52.7158 70.724 52.7158 71.62V76.5H51.2118V71.876C51.2118 70.5853 50.6144 69.94 49.4198 69.94C48.8544 69.94 48.4118 70.1427 48.0918 70.548C47.7824 70.9427 47.6278 71.444 47.6278 72.052ZM56.6121 72.052V76.5H55.1081V68.804H56.5801V69.908C57.0921 69.0227 57.8815 68.58 58.9481 68.58C59.8335 68.58 60.5108 68.8627 60.9801 69.428C61.4601 69.9933 61.7001 70.724 61.7001 71.62V76.5H60.1961V71.876C60.1961 70.5853 59.5988 69.94 58.4041 69.94C57.8388 69.94 57.3961 70.1427 57.0761 70.548C56.7668 70.9427 56.6121 71.444 56.6121 72.052ZM65.0685 71.86H69.2765C69.2552 71.284 69.0632 70.8147 68.7005 70.452C68.3378 70.0787 67.8258 69.892 67.1645 69.892C66.5672 69.892 66.0765 70.0893 65.6925 70.484C65.3085 70.868 65.1005 71.3267 65.0685 71.86ZM69.5005 73.86L70.7965 74.308C70.5725 75.0227 70.1565 75.6093 69.5485 76.068C68.9405 76.516 68.2045 76.74 67.3405 76.74C66.2632 76.74 65.3458 76.372 64.5885 75.636C63.8418 74.8893 63.4685 73.8867 63.4685 72.628C63.4685 71.4547 63.8312 70.484 64.5565 69.716C65.2818 68.948 66.1458 68.564 67.1485 68.564C68.3112 68.564 69.2178 68.932 69.8685 69.668C70.5192 70.3933 70.8445 71.3693 70.8445 72.596C70.8445 72.788 70.8338 72.948 70.8125 73.076H65.0205C65.0312 73.7587 65.2552 74.3187 65.6925 74.756C66.1405 75.1933 66.6898 75.412 67.3405 75.412C68.4392 75.412 69.1592 74.8947 69.5005 73.86ZM75.9964 69.956C75.3457 69.956 74.791 70.1907 74.3324 70.66C73.8844 71.1293 73.6604 71.7907 73.6604 72.644C73.6604 73.4867 73.8844 74.148 74.3324 74.628C74.791 75.108 75.351 75.348 76.0124 75.348C76.6524 75.348 77.1377 75.188 77.4684 74.868C77.8097 74.548 78.039 74.18 78.1564 73.764L79.4844 74.34C79.271 74.98 78.8657 75.54 78.2684 76.02C77.6817 76.5 76.9297 76.74 76.0124 76.74C74.8924 76.74 73.9644 76.3507 73.2284 75.572C72.4924 74.7933 72.1244 73.8173 72.1244 72.644C72.1244 71.4493 72.4924 70.4733 73.2284 69.716C73.9644 68.948 74.887 68.564 75.9964 68.564C76.935 68.564 77.6924 68.804 78.2684 69.284C78.855 69.764 79.239 70.34 79.4204 71.012L78.0604 71.588C77.943 71.14 77.719 70.756 77.3884 70.436C77.0577 70.116 76.5937 69.956 75.9964 69.956ZM83.2648 66.372V68.804H84.9288V70.164H83.2648V74.164C83.2648 74.5267 83.3448 74.7933 83.5048 74.964C83.6754 75.1347 83.9528 75.22 84.3368 75.22C84.5608 75.22 84.7581 75.1987 84.9288 75.156V76.436C84.6728 76.532 84.3314 76.58 83.9048 76.58C83.2434 76.58 82.7208 76.388 82.3368 76.004C81.9528 75.62 81.7608 75.0813 81.7608 74.388V70.164H80.2888V68.804H80.7048C81.0994 68.804 81.3928 68.6973 81.5848 68.484C81.7874 68.26 81.8888 67.972 81.8888 67.62V66.372H83.2648ZM92.8563 79.716H91.2083L93.1283 75.652L89.8163 68.804H91.5443L93.9443 74.116L96.2483 68.804H97.8643L92.8563 79.716ZM100.583 74.676C101.052 75.156 101.623 75.396 102.295 75.396C102.967 75.396 103.532 75.156 103.991 74.676C104.46 74.1853 104.695 73.508 104.695 72.644C104.695 71.7907 104.46 71.124 103.991 70.644C103.532 70.1533 102.967 69.908 102.295 69.908C101.623 69.908 101.052 70.1533 100.583 70.644C100.124 71.124 99.8948 71.7907 99.8948 72.644C99.8948 73.508 100.124 74.1853 100.583 74.676ZM99.4628 69.732C100.209 68.9533 101.153 68.564 102.295 68.564C103.436 68.564 104.375 68.9533 105.111 69.732C105.857 70.5 106.231 71.4707 106.231 72.644C106.231 73.828 105.863 74.8093 105.127 75.588C104.391 76.356 103.447 76.74 102.295 76.74C101.143 76.74 100.199 76.356 99.4628 75.588C98.7268 74.8093 98.3588 73.828 98.3588 72.644C98.3588 71.4707 98.7268 70.5 99.4628 69.732ZM113.149 75.572C112.946 75.956 112.637 76.2493 112.221 76.452C111.805 76.644 111.357 76.74 110.877 76.74C110.002 76.74 109.304 76.452 108.781 75.876C108.258 75.2893 107.997 74.548 107.997 73.652V68.804H109.501V73.428C109.501 74.004 109.64 74.4787 109.917 74.852C110.205 75.2253 110.648 75.412 111.245 75.412C111.842 75.412 112.296 75.236 112.605 74.884C112.914 74.5213 113.069 74.0413 113.069 73.444V68.804H114.573V75.076C114.573 75.5773 114.6 76.052 114.653 76.5H113.213C113.17 76.2653 113.149 75.956 113.149 75.572ZM121.411 68.724V70.324C121.187 70.292 120.969 70.276 120.755 70.276C119.347 70.276 118.643 71.0653 118.643 72.644V76.5H117.139V68.804H118.611V70.148C119.081 69.1667 119.849 68.676 120.915 68.676C121.086 68.676 121.251 68.692 121.411 68.724ZM133.91 68.804L130.63 72.052L133.974 76.5H132.086L129.574 73.108L128.502 74.18V76.5H127.014V64.916H128.502V72.212L131.83 68.804H133.91ZM135.99 71.86H140.198C140.177 71.284 139.985 70.8147 139.622 70.452C139.26 70.0787 138.748 69.892 138.086 69.892C137.489 69.892 136.998 70.0893 136.614 70.484C136.23 70.868 136.022 71.3267 135.99 71.86ZM140.422 73.86L141.718 74.308C141.494 75.0227 141.078 75.6093 140.47 76.068C139.862 76.516 139.126 76.74 138.262 76.74C137.185 76.74 136.268 76.372 135.51 75.636C134.764 74.8893 134.39 73.8867 134.39 72.628C134.39 71.4547 134.753 70.484 135.478 69.716C136.204 68.948 137.068 68.564 138.07 68.564C139.233 68.564 140.14 68.932 140.79 69.668C141.441 70.3933 141.766 71.3693 141.766 72.596C141.766 72.788 141.756 72.948 141.734 73.076H135.942C135.953 73.7587 136.177 74.3187 136.614 74.756C137.062 75.1933 137.612 75.412 138.262 75.412C139.361 75.412 140.081 74.8947 140.422 73.86ZM145.174 79.54H143.686V68.804H145.142V70.004C145.366 69.5987 145.702 69.268 146.15 69.012C146.598 68.756 147.121 68.628 147.718 68.628C148.828 68.628 149.692 69.0067 150.31 69.764C150.94 70.5213 151.254 71.4813 151.254 72.644C151.254 73.8173 150.929 74.788 150.278 75.556C149.638 76.324 148.769 76.708 147.67 76.708C147.105 76.708 146.604 76.5907 146.166 76.356C145.729 76.1213 145.398 75.8227 145.174 75.46V79.54ZM149.718 72.644C149.718 71.8653 149.51 71.2253 149.094 70.724C148.689 70.212 148.14 69.956 147.446 69.956C146.764 69.956 146.209 70.212 145.782 70.724C145.366 71.2253 145.158 71.8653 145.158 72.644C145.158 73.444 145.366 74.1 145.782 74.612C146.209 75.1133 146.764 75.364 147.446 75.364C148.129 75.364 148.678 75.1133 149.094 74.612C149.51 74.1 149.718 73.444 149.718 72.644ZM154.675 76.5H153.171V64.916H154.675V76.5ZM161.505 68.724V70.324C161.281 70.292 161.062 70.276 160.849 70.276C159.441 70.276 158.737 71.0653 158.737 72.644V76.5H157.233V68.804H158.705V70.148C159.174 69.1667 159.942 68.676 161.009 68.676C161.18 68.676 161.345 68.692 161.505 68.724ZM171.444 68.804H172.996L174.996 74.596L176.692 68.804H178.276L175.78 76.5H174.228L172.18 70.644L170.18 76.5H168.596L166.068 68.804H167.716L169.444 74.596L171.444 68.804ZM179.238 74.436C179.238 73.7747 179.451 73.2467 179.878 72.852C180.304 72.4467 180.87 72.196 181.574 72.1L183.654 71.796C184.048 71.7427 184.246 71.5507 184.246 71.22C184.246 70.8147 184.107 70.484 183.83 70.228C183.552 69.972 183.136 69.844 182.582 69.844C182.07 69.844 181.664 69.988 181.366 70.276C181.067 70.5533 180.891 70.9267 180.838 71.396L179.398 71.06C179.472 70.324 179.808 69.7267 180.406 69.268C181.003 68.7987 181.718 68.564 182.549 68.564C183.638 68.564 184.443 68.8307 184.966 69.364C185.488 69.8867 185.75 70.5587 185.75 71.38V75.236C185.75 75.6947 185.782 76.116 185.846 76.5H184.374C184.32 76.18 184.294 75.8333 184.294 75.46C184.08 75.8013 183.766 76.1 183.35 76.356C182.944 76.612 182.432 76.74 181.814 76.74C181.056 76.74 180.438 76.516 179.958 76.068C179.478 75.6093 179.238 75.0653 179.238 74.436ZM182.022 75.476C182.694 75.476 183.232 75.2947 183.638 74.932C184.043 74.5693 184.246 73.9933 184.246 73.204V72.852L181.894 73.204C181.552 73.2573 181.28 73.38 181.078 73.572C180.875 73.764 180.774 74.0253 180.774 74.356C180.774 74.6547 180.886 74.916 181.11 75.14C181.344 75.364 181.648 75.476 182.022 75.476ZM189.597 76.5H188.093V64.916H189.597V76.5ZM193.659 76.5H192.155V64.916H193.659V76.5ZM197.194 71.86H201.402C201.38 71.284 201.188 70.8147 200.826 70.452C200.463 70.0787 199.951 69.892 199.29 69.892C198.692 69.892 198.202 70.0893 197.818 70.484C197.434 70.868 197.226 71.3267 197.194 71.86ZM201.626 73.86L202.922 74.308C202.698 75.0227 202.282 75.6093 201.674 76.068C201.066 76.516 200.33 76.74 199.466 76.74C198.388 76.74 197.471 76.372 196.714 75.636C195.967 74.8893 195.594 73.8867 195.594 72.628C195.594 71.4547 195.956 70.484 196.682 69.716C197.407 68.948 198.271 68.564 199.274 68.564C200.436 68.564 201.343 68.932 201.994 69.668C202.644 70.3933 202.97 71.3693 202.97 72.596C202.97 72.788 202.959 72.948 202.938 73.076H197.146C197.156 73.7587 197.38 74.3187 197.818 74.756C198.266 75.1933 198.815 75.412 199.466 75.412C200.564 75.412 201.284 74.8947 201.626 73.86ZM206.905 66.372V68.804H208.569V70.164H206.905V74.164C206.905 74.5267 206.985 74.7933 207.145 74.964C207.316 75.1347 207.593 75.22 207.977 75.22C208.201 75.22 208.399 75.1987 208.569 75.156V76.436C208.313 76.532 207.972 76.58 207.545 76.58C206.884 76.58 206.361 76.388 205.977 76.004C205.593 75.62 205.401 75.0813 205.401 74.388V70.164H203.929V68.804H204.345C204.74 68.804 205.033 68.6973 205.225 68.484C205.428 68.26 205.529 67.972 205.529 67.62V66.372H206.905ZM216.593 66.372V68.804H218.257V70.164H216.593V74.164C216.593 74.5267 216.673 74.7933 216.833 74.964C217.004 75.1347 217.281 75.22 217.665 75.22C217.889 75.22 218.086 75.1987 218.257 75.156V76.436C218.001 76.532 217.66 76.58 217.233 76.58C216.572 76.58 216.049 76.388 215.665 76.004C215.281 75.62 215.089 75.0813 215.089 74.388V70.164H213.617V68.804H214.033C214.428 68.804 214.721 68.6973 214.913 68.484C215.116 68.26 215.217 67.972 215.217 67.62V66.372H216.593ZM221.77 74.676C222.24 75.156 222.81 75.396 223.482 75.396C224.154 75.396 224.72 75.156 225.178 74.676C225.648 74.1853 225.882 73.508 225.882 72.644C225.882 71.7907 225.648 71.124 225.178 70.644C224.72 70.1533 224.154 69.908 223.482 69.908C222.81 69.908 222.24 70.1533 221.77 70.644C221.312 71.124 221.082 71.7907 221.082 72.644C221.082 73.508 221.312 74.1853 221.77 74.676ZM220.65 69.732C221.397 68.9533 222.341 68.564 223.482 68.564C224.624 68.564 225.562 68.9533 226.298 69.732C227.045 70.5 227.418 71.4707 227.418 72.644C227.418 73.828 227.05 74.8093 226.314 75.588C225.578 76.356 224.634 76.74 223.482 76.74C222.33 76.74 221.386 76.356 220.65 75.588C219.914 74.8093 219.546 73.828 219.546 72.644C219.546 71.4707 219.914 70.5 220.65 69.732ZM234.831 76.5H233.343V64.916H234.831V69.892C235.033 69.5187 235.353 69.2093 235.791 68.964C236.239 68.708 236.767 68.58 237.375 68.58C238.495 68.58 239.364 68.9587 239.983 69.716C240.601 70.4733 240.911 71.4387 240.911 72.612C240.911 73.796 240.591 74.7773 239.951 75.556C239.311 76.324 238.436 76.708 237.327 76.708C236.175 76.708 235.343 76.2653 234.831 75.38V76.5ZM238.751 74.612C239.167 74.1107 239.375 73.444 239.375 72.612C239.375 71.78 239.167 71.124 238.751 70.644C238.345 70.1533 237.796 69.908 237.103 69.908C236.431 69.908 235.881 70.1533 235.455 70.644C235.028 71.1347 234.815 71.7907 234.815 72.612C234.815 73.4333 235.028 74.1 235.455 74.612C235.881 75.1133 236.431 75.364 237.103 75.364C237.785 75.364 238.335 75.1133 238.751 74.612ZM243.803 71.86H248.011C247.99 71.284 247.798 70.8147 247.435 70.452C247.072 70.0787 246.56 69.892 245.899 69.892C245.302 69.892 244.811 70.0893 244.427 70.484C244.043 70.868 243.835 71.3267 243.803 71.86ZM248.235 73.86L249.531 74.308C249.307 75.0227 248.891 75.6093 248.283 76.068C247.675 76.516 246.939 76.74 246.075 76.74C244.998 76.74 244.08 76.372 243.323 75.636C242.576 74.8893 242.203 73.8867 242.203 72.628C242.203 71.4547 242.566 70.484 243.291 69.716C244.016 68.948 244.88 68.564 245.883 68.564C247.046 68.564 247.952 68.932 248.603 69.668C249.254 70.3933 249.579 71.3693 249.579 72.596C249.579 72.788 249.568 72.948 249.547 73.076H243.755C243.766 73.7587 243.99 74.3187 244.427 74.756C244.875 75.1933 245.424 75.412 246.075 75.412C247.174 75.412 247.894 74.8947 248.235 73.86ZM250.939 76.916L252.395 76.58C252.448 77.124 252.667 77.572 253.051 77.924C253.435 78.2867 253.915 78.468 254.491 78.468C256.059 78.468 256.843 77.636 256.843 75.972V74.868C256.651 75.2413 256.347 75.5453 255.931 75.78C255.525 76.0147 255.045 76.132 254.491 76.132C253.467 76.132 252.619 75.7853 251.947 75.092C251.285 74.388 250.955 73.492 250.955 72.404C250.955 71.348 251.285 70.4627 251.947 69.748C252.608 69.0227 253.456 68.66 254.491 68.66C255.664 68.66 256.453 69.0653 256.859 69.876V68.804H258.347V75.924C258.347 76.436 258.277 76.9107 258.139 77.348C258.011 77.796 257.803 78.2067 257.515 78.58C257.227 78.9533 256.821 79.2467 256.299 79.46C255.787 79.6733 255.184 79.78 254.491 79.78C253.541 79.78 252.736 79.508 252.075 78.964C251.413 78.4307 251.035 77.748 250.939 76.916ZM254.715 74.868C255.365 74.868 255.893 74.644 256.299 74.196C256.704 73.7373 256.907 73.14 256.907 72.404C256.907 71.668 256.704 71.076 256.299 70.628C255.893 70.1693 255.365 69.94 254.715 69.94C254.053 69.94 253.515 70.164 253.099 70.612C252.693 71.06 252.491 71.6573 252.491 72.404C252.491 73.1613 252.688 73.764 253.083 74.212C253.488 74.6493 254.032 74.868 254.715 74.868ZM262.237 76.5H260.749V68.804H262.237V76.5ZM260.717 66.66C260.514 66.4467 260.413 66.1907 260.413 65.892C260.413 65.5933 260.514 65.3373 260.717 65.124C260.93 64.9107 261.186 64.804 261.485 64.804C261.783 64.804 262.039 64.9107 262.253 65.124C262.466 65.3267 262.573 65.5827 262.573 65.892C262.573 66.1907 262.466 66.4467 262.253 66.66C262.039 66.8627 261.783 66.964 261.485 66.964C261.186 66.964 260.93 66.8627 260.717 66.66ZM266.3 72.052V76.5H264.796V68.804H266.268V69.908C266.78 69.0227 267.569 68.58 268.636 68.58C269.521 68.58 270.198 68.8627 270.668 69.428C271.148 69.9933 271.388 70.724 271.388 71.62V76.5H269.884V71.876C269.884 70.5853 269.286 69.94 268.092 69.94C267.526 69.94 267.084 70.1427 266.764 70.548C266.454 70.9427 266.3 71.444 266.3 72.052Z" fill="#7E8082"/>
<g clip-path="url(#clip0_596_568)">
<path d="M24 144.5C24 140.634 27.134 137.5 31 137.5H364C367.866 137.5 371 140.634 371 144.5V449.5C371 453.366 367.866 456.5 364 456.5H31C27.134 456.5 24 453.366 24 449.5V144.5Z" fill="url(#paint0_linear_596_568)"/>
<rect x="64.9188" y="214.919" width="324.162" height="184.43" rx="11.308" fill="white"/>
<rect x="64.9188" y="214.919" width="324.162" height="184.43" rx="11.308" stroke="#E4E4E7" stroke-width="0.837629"/>
<path d="M147.663 256.228C147.663 254.834 147.965 253.594 148.568 252.509C149.171 251.41 150.009 250.559 151.081 249.956C152.166 249.339 153.393 249.031 154.76 249.031C156.435 249.031 157.869 249.473 159.062 250.358C160.255 251.242 161.052 252.448 161.454 253.976H157.675C157.393 253.387 156.991 252.938 156.469 252.629C155.959 252.321 155.376 252.167 154.72 252.167C153.661 252.167 152.803 252.536 152.146 253.273C151.49 254.01 151.161 254.995 151.161 256.228C151.161 257.461 151.49 258.446 152.146 259.183C152.803 259.92 153.661 260.289 154.72 260.289C155.376 260.289 155.959 260.135 156.469 259.826C156.991 259.518 157.393 259.069 157.675 258.479H161.454C161.052 260.007 160.255 261.213 159.062 262.098C157.869 262.969 156.435 263.405 154.76 263.405C153.393 263.405 152.166 263.103 151.081 262.5C150.009 261.884 149.171 261.032 148.568 259.947C147.965 258.861 147.663 257.622 147.663 256.228ZM168.665 263.465C167.567 263.465 166.575 263.23 165.69 262.761C164.819 262.292 164.129 261.622 163.62 260.751C163.124 259.88 162.876 258.861 162.876 257.695C162.876 256.543 163.13 255.531 163.64 254.66C164.149 253.775 164.846 253.098 165.73 252.629C166.615 252.16 167.607 251.926 168.706 251.926C169.805 251.926 170.796 252.16 171.681 252.629C172.565 253.098 173.262 253.775 173.772 254.66C174.281 255.531 174.536 256.543 174.536 257.695C174.536 258.848 174.274 259.867 173.752 260.751C173.242 261.622 172.539 262.292 171.641 262.761C170.756 263.23 169.764 263.465 168.665 263.465ZM168.665 260.49C169.322 260.49 169.878 260.248 170.334 259.766C170.803 259.284 171.038 258.593 171.038 257.695C171.038 256.797 170.81 256.107 170.354 255.625C169.912 255.142 169.362 254.901 168.706 254.901C168.036 254.901 167.479 255.142 167.037 255.625C166.595 256.094 166.374 256.784 166.374 257.695C166.374 258.593 166.588 259.284 167.017 259.766C167.459 260.248 168.009 260.49 168.665 260.49ZM183.194 251.966C184.508 251.966 185.553 252.395 186.33 253.253C187.121 254.097 187.517 255.263 187.517 256.751V263.304H184.099V257.213C184.099 256.462 183.905 255.879 183.516 255.464C183.127 255.048 182.605 254.841 181.948 254.841C181.291 254.841 180.769 255.048 180.38 255.464C179.991 255.879 179.797 256.462 179.797 257.213V263.304H176.359V252.087H179.797V253.574C180.145 253.078 180.614 252.69 181.204 252.408C181.794 252.113 182.457 251.966 183.194 251.966ZM196.74 251.966C198.054 251.966 199.099 252.395 199.876 253.253C200.667 254.097 201.063 255.263 201.063 256.751V263.304H197.645V257.213C197.645 256.462 197.451 255.879 197.062 255.464C196.673 255.048 196.151 254.841 195.494 254.841C194.837 254.841 194.315 255.048 193.926 255.464C193.537 255.879 193.343 256.462 193.343 257.213V263.304H189.905V252.087H193.343V253.574C193.691 253.078 194.16 252.69 194.75 252.408C195.34 252.113 196.003 251.966 196.74 251.966ZM214.026 257.514C214.026 257.836 214.005 258.171 213.965 258.52H206.185C206.239 259.217 206.46 259.753 206.849 260.128C207.251 260.49 207.74 260.671 208.316 260.671C209.174 260.671 209.77 260.309 210.105 259.585H213.764C213.577 260.322 213.235 260.986 212.739 261.575C212.257 262.165 211.647 262.627 210.91 262.962C210.173 263.297 209.348 263.465 208.437 263.465C207.338 263.465 206.36 263.23 205.502 262.761C204.644 262.292 203.974 261.622 203.492 260.751C203.009 259.88 202.768 258.861 202.768 257.695C202.768 256.529 203.002 255.511 203.471 254.64C203.954 253.769 204.624 253.098 205.482 252.629C206.34 252.16 207.325 251.926 208.437 251.926C209.523 251.926 210.487 252.154 211.332 252.609C212.176 253.065 212.833 253.715 213.302 254.559C213.784 255.404 214.026 256.389 214.026 257.514ZM210.508 256.61C210.508 256.02 210.307 255.551 209.904 255.203C209.502 254.854 209 254.68 208.397 254.68C207.82 254.68 207.331 254.847 206.929 255.182C206.541 255.518 206.299 255.993 206.205 256.61H210.508ZM215.156 257.695C215.156 256.529 215.39 255.511 215.859 254.64C216.342 253.769 217.005 253.098 217.849 252.629C218.707 252.16 219.686 251.926 220.784 251.926C222.192 251.926 223.364 252.294 224.303 253.031C225.254 253.769 225.877 254.807 226.172 256.147H222.513C222.205 255.29 221.609 254.861 220.724 254.861C220.094 254.861 219.592 255.109 219.216 255.605C218.841 256.087 218.654 256.784 218.654 257.695C218.654 258.607 218.841 259.31 219.216 259.806C219.592 260.289 220.094 260.53 220.724 260.53C221.609 260.53 222.205 260.101 222.513 259.243H226.172C225.877 260.557 225.254 261.589 224.303 262.339C223.351 263.09 222.178 263.465 220.784 263.465C219.686 263.465 218.707 263.23 217.849 262.761C217.005 262.292 216.342 261.622 215.859 260.751C215.39 259.88 215.156 258.861 215.156 257.695ZM234.263 260.389V263.304H232.514C231.268 263.304 230.296 263.003 229.599 262.399C228.902 261.783 228.554 260.785 228.554 259.404V254.941H227.187V252.087H228.554V249.353H231.991V252.087H234.243V254.941H231.991V259.444C231.991 259.779 232.072 260.021 232.233 260.168C232.393 260.315 232.661 260.389 233.037 260.389H234.263ZM259.858 249.192L256.179 263.304H252.017L249.766 254.017L247.434 263.304H243.272L239.694 249.192H243.373L245.403 259.464L247.916 249.192H251.696L254.108 259.464L256.159 249.192H259.858ZM260.898 257.675C260.898 256.523 261.112 255.511 261.541 254.64C261.984 253.769 262.58 253.098 263.33 252.629C264.081 252.16 264.919 251.926 265.843 251.926C266.634 251.926 267.324 252.087 267.914 252.408C268.517 252.73 268.979 253.152 269.301 253.675V252.087H272.739V263.304H269.301V261.716C268.966 262.239 268.497 262.661 267.894 262.982C267.304 263.304 266.614 263.465 265.823 263.465C264.912 263.465 264.081 263.23 263.33 262.761C262.58 262.279 261.984 261.602 261.541 260.731C261.112 259.846 260.898 258.828 260.898 257.675ZM269.301 257.695C269.301 256.838 269.06 256.161 268.577 255.665C268.108 255.169 267.532 254.921 266.849 254.921C266.165 254.921 265.582 255.169 265.1 255.665C264.63 256.147 264.396 256.818 264.396 257.675C264.396 258.533 264.63 259.217 265.1 259.726C265.582 260.222 266.165 260.47 266.849 260.47C267.532 260.47 268.108 260.222 268.577 259.726C269.06 259.23 269.301 258.553 269.301 257.695ZM278.663 248.428V263.304H275.226V248.428H278.663ZM284.592 248.428V263.304H281.155V248.428H284.592ZM297.658 257.514C297.658 257.836 297.638 258.171 297.597 258.52H289.817C289.871 259.217 290.092 259.753 290.481 260.128C290.883 260.49 291.372 260.671 291.948 260.671C292.806 260.671 293.402 260.309 293.738 259.585H297.396C297.209 260.322 296.867 260.986 296.371 261.575C295.889 262.165 295.279 262.627 294.542 262.962C293.805 263.297 292.98 263.465 292.069 263.465C290.97 263.465 289.992 263.23 289.134 262.761C288.276 262.292 287.606 261.622 287.124 260.751C286.641 259.88 286.4 258.861 286.4 257.695C286.4 256.529 286.634 255.511 287.103 254.64C287.586 253.769 288.256 253.098 289.114 252.629C289.972 252.16 290.957 251.926 292.069 251.926C293.155 251.926 294.119 252.154 294.964 252.609C295.808 253.065 296.465 253.715 296.934 254.559C297.416 255.404 297.658 256.389 297.658 257.514ZM294.14 256.61C294.14 256.02 293.939 255.551 293.536 255.203C293.134 254.854 292.632 254.68 292.029 254.68C291.452 254.68 290.963 254.847 290.561 255.182C290.173 255.518 289.931 255.993 289.838 256.61H294.14ZM305.723 260.389V263.304H303.974C302.728 263.304 301.756 263.003 301.059 262.399C300.362 261.783 300.014 260.785 300.014 259.404V254.941H298.647V252.087H300.014V249.353H303.452V252.087H305.703V254.941H303.452V259.444C303.452 259.779 303.532 260.021 303.693 260.168C303.854 260.315 304.122 260.389 304.497 260.389H305.723Z" fill="#18181B"/>
<path d="M101.864 287.939H103.767C104.33 287.939 104.776 287.796 105.107 287.51C105.438 287.215 105.603 286.822 105.603 286.331C105.603 285.831 105.438 285.433 105.107 285.138C104.776 284.834 104.33 284.683 103.767 284.683H101.864V287.939ZM104.008 289.119H101.864V293.005H100.55V283.503H104.008C104.875 283.503 105.581 283.771 106.126 284.307C106.671 284.843 106.943 285.513 106.943 286.318C106.943 287.131 106.671 287.801 106.126 288.328C105.581 288.855 104.875 289.119 104.008 289.119ZM109.287 293.005H108.028V283.302H109.287V293.005ZM111.993 289.119H115.518C115.5 288.636 115.339 288.243 115.036 287.939C114.732 287.626 114.303 287.47 113.749 287.47C113.249 287.47 112.838 287.635 112.516 287.966C112.194 288.288 112.02 288.672 111.993 289.119ZM115.706 290.794L116.791 291.169C116.604 291.768 116.255 292.259 115.746 292.643C115.237 293.019 114.62 293.206 113.896 293.206C112.994 293.206 112.226 292.898 111.591 292.281C110.966 291.656 110.653 290.816 110.653 289.762C110.653 288.779 110.957 287.966 111.564 287.323C112.172 286.679 112.896 286.358 113.736 286.358C114.709 286.358 115.469 286.666 116.014 287.283C116.559 287.89 116.831 288.708 116.831 289.735C116.831 289.896 116.822 290.03 116.805 290.137H111.953C111.962 290.709 112.15 291.178 112.516 291.544C112.891 291.911 113.351 292.094 113.896 292.094C114.817 292.094 115.42 291.661 115.706 290.794ZM117.783 291.276C117.783 290.722 117.962 290.28 118.319 289.95C118.676 289.61 119.15 289.4 119.74 289.32L121.482 289.065C121.812 289.02 121.978 288.859 121.978 288.583C121.978 288.243 121.862 287.966 121.629 287.752C121.397 287.537 121.048 287.43 120.584 287.43C120.155 287.43 119.816 287.551 119.565 287.792C119.315 288.024 119.168 288.337 119.123 288.73L117.917 288.448C117.979 287.832 118.261 287.332 118.761 286.947C119.262 286.554 119.86 286.358 120.557 286.358C121.468 286.358 122.143 286.581 122.581 287.028C123.019 287.466 123.237 288.029 123.237 288.717V291.946C123.237 292.331 123.264 292.684 123.318 293.005H122.085C122.04 292.737 122.018 292.447 122.018 292.134C121.839 292.42 121.576 292.67 121.227 292.885C120.888 293.099 120.459 293.206 119.941 293.206C119.306 293.206 118.788 293.019 118.386 292.643C117.984 292.259 117.783 291.803 117.783 291.276ZM120.115 292.147C120.678 292.147 121.129 291.996 121.468 291.692C121.808 291.388 121.978 290.906 121.978 290.244V289.95L120.008 290.244C119.722 290.289 119.494 290.392 119.324 290.553C119.154 290.713 119.069 290.932 119.069 291.209C119.069 291.459 119.163 291.678 119.351 291.866C119.547 292.054 119.802 292.147 120.115 292.147ZM124.342 291.33L125.482 290.928C125.526 291.276 125.678 291.567 125.937 291.799C126.196 292.022 126.545 292.134 126.983 292.134C127.322 292.134 127.59 292.054 127.787 291.893C127.983 291.723 128.082 291.518 128.082 291.276C128.082 290.847 127.805 290.57 127.251 290.445L126.152 290.204C125.651 290.097 125.258 289.883 124.972 289.561C124.686 289.239 124.543 288.851 124.543 288.395C124.543 287.841 124.767 287.363 125.213 286.961C125.669 286.559 126.21 286.358 126.835 286.358C127.246 286.358 127.612 286.42 127.934 286.545C128.256 286.662 128.506 286.818 128.685 287.014C128.863 287.211 128.997 287.394 129.087 287.564C129.176 287.734 129.243 287.908 129.288 288.087L128.175 288.502C128.157 288.395 128.126 288.292 128.082 288.194C128.037 288.087 127.965 287.97 127.867 287.845C127.778 287.72 127.644 287.622 127.465 287.551C127.286 287.47 127.076 287.43 126.835 287.43C126.522 287.43 126.263 287.515 126.058 287.685C125.861 287.854 125.763 288.055 125.763 288.288C125.763 288.699 126.009 288.958 126.5 289.065L127.545 289.293C128.117 289.418 128.555 289.65 128.859 289.99C129.172 290.32 129.328 290.727 129.328 291.209C129.328 291.719 129.118 292.179 128.698 292.59C128.287 293.001 127.711 293.206 126.969 293.206C126.174 293.206 125.553 293.01 125.106 292.617C124.66 292.214 124.405 291.786 124.342 291.33ZM131.503 289.119H135.027C135.009 288.636 134.849 288.243 134.545 287.939C134.241 287.626 133.812 287.47 133.258 287.47C132.758 287.47 132.347 287.635 132.025 287.966C131.704 288.288 131.529 288.672 131.503 289.119ZM135.215 290.794L136.301 291.169C136.113 291.768 135.764 292.259 135.255 292.643C134.746 293.019 134.129 293.206 133.406 293.206C132.503 293.206 131.735 292.898 131.101 292.281C130.475 291.656 130.162 290.816 130.162 289.762C130.162 288.779 130.466 287.966 131.074 287.323C131.681 286.679 132.405 286.358 133.245 286.358C134.219 286.358 134.978 286.666 135.523 287.283C136.068 287.89 136.341 288.708 136.341 289.735C136.341 289.896 136.332 290.03 136.314 290.137H131.462C131.471 290.709 131.659 291.178 132.025 291.544C132.401 291.911 132.861 292.094 133.406 292.094C134.326 292.094 134.929 291.661 135.215 290.794ZM143.497 287.524C142.952 287.524 142.488 287.72 142.104 288.113C141.728 288.507 141.541 289.061 141.541 289.775C141.541 290.481 141.728 291.035 142.104 291.437C142.488 291.839 142.957 292.04 143.511 292.04C144.047 292.04 144.453 291.906 144.73 291.638C145.016 291.37 145.208 291.062 145.307 290.713L146.419 291.196C146.24 291.732 145.901 292.201 145.4 292.603C144.909 293.005 144.279 293.206 143.511 293.206C142.573 293.206 141.795 292.88 141.179 292.228C140.562 291.576 140.254 290.758 140.254 289.775C140.254 288.775 140.562 287.957 141.179 287.323C141.795 286.679 142.568 286.358 143.497 286.358C144.284 286.358 144.918 286.559 145.4 286.961C145.892 287.363 146.213 287.845 146.365 288.408L145.226 288.891C145.128 288.515 144.94 288.194 144.663 287.926C144.386 287.658 143.998 287.524 143.497 287.524ZM148.904 291.477C149.297 291.879 149.775 292.08 150.338 292.08C150.901 292.08 151.374 291.879 151.758 291.477C152.151 291.066 152.348 290.499 152.348 289.775C152.348 289.061 152.151 288.502 151.758 288.1C151.374 287.689 150.901 287.484 150.338 287.484C149.775 287.484 149.297 287.689 148.904 288.1C148.519 288.502 148.327 289.061 148.327 289.775C148.327 290.499 148.519 291.066 148.904 291.477ZM147.965 287.336C148.591 286.684 149.382 286.358 150.338 286.358C151.294 286.358 152.08 286.684 152.696 287.336C153.322 287.979 153.635 288.792 153.635 289.775C153.635 290.767 153.326 291.589 152.71 292.241C152.093 292.885 151.303 293.206 150.338 293.206C149.373 293.206 148.582 292.885 147.965 292.241C147.349 291.589 147.041 290.767 147.041 289.775C147.041 288.792 147.349 287.979 147.965 287.336ZM156.251 289.279V293.005H154.992V286.559H156.225V287.484C156.654 286.742 157.315 286.371 158.208 286.371C158.95 286.371 159.517 286.608 159.91 287.081C160.312 287.555 160.513 288.167 160.513 288.918V293.005H159.254V289.132C159.254 288.051 158.753 287.51 157.753 287.51C157.279 287.51 156.908 287.68 156.64 288.02C156.381 288.35 156.251 288.77 156.251 289.279ZM163.522 289.279V293.005H162.263V286.559H163.496V287.484C163.924 286.742 164.586 286.371 165.479 286.371C166.221 286.371 166.788 286.608 167.181 287.081C167.583 287.555 167.784 288.167 167.784 288.918V293.005H166.524V289.132C166.524 288.051 166.024 287.51 165.023 287.51C164.55 287.51 164.179 287.68 163.911 288.02C163.652 288.35 163.522 288.77 163.522 289.279ZM170.351 289.119H173.876C173.858 288.636 173.697 288.243 173.393 287.939C173.09 287.626 172.661 287.47 172.107 287.47C171.606 287.47 171.195 287.635 170.874 287.966C170.552 288.288 170.378 288.672 170.351 289.119ZM174.063 290.794L175.149 291.169C174.961 291.768 174.613 292.259 174.104 292.643C173.594 293.019 172.978 293.206 172.254 293.206C171.352 293.206 170.583 292.898 169.949 292.281C169.324 291.656 169.011 290.816 169.011 289.762C169.011 288.779 169.315 287.966 169.922 287.323C170.53 286.679 171.253 286.358 172.093 286.358C173.067 286.358 173.827 286.666 174.372 287.283C174.917 287.89 175.189 288.708 175.189 289.735C175.189 289.896 175.18 290.03 175.162 290.137H170.311C170.32 290.709 170.507 291.178 170.874 291.544C171.249 291.911 171.709 292.094 172.254 292.094C173.174 292.094 173.778 291.661 174.063 290.794ZM179.25 287.524C178.705 287.524 178.24 287.72 177.856 288.113C177.481 288.507 177.293 289.061 177.293 289.775C177.293 290.481 177.481 291.035 177.856 291.437C178.24 291.839 178.709 292.04 179.263 292.04C179.799 292.04 180.206 291.906 180.483 291.638C180.769 291.37 180.961 291.062 181.059 290.713L182.172 291.196C181.993 291.732 181.653 292.201 181.153 292.603C180.662 293.005 180.032 293.206 179.263 293.206C178.325 293.206 177.548 292.88 176.931 292.228C176.315 291.576 176.007 290.758 176.007 289.775C176.007 288.775 176.315 287.957 176.931 287.323C177.548 286.679 178.321 286.358 179.25 286.358C180.036 286.358 180.671 286.559 181.153 286.961C181.644 287.363 181.966 287.845 182.118 288.408L180.979 288.891C180.881 288.515 180.693 288.194 180.416 287.926C180.139 287.658 179.75 287.524 179.25 287.524ZM185.084 284.522V286.559H186.477V287.698H185.084V291.048C185.084 291.352 185.151 291.576 185.285 291.719C185.427 291.862 185.66 291.933 185.981 291.933C186.169 291.933 186.334 291.915 186.477 291.879V292.952C186.263 293.032 185.977 293.072 185.62 293.072C185.066 293.072 184.628 292.911 184.306 292.59C183.985 292.268 183.824 291.817 183.824 291.236V287.698H182.591V286.559H182.939C183.27 286.559 183.515 286.469 183.676 286.291C183.846 286.103 183.931 285.862 183.931 285.567V284.522H185.084ZM192.608 295.699H191.228L192.836 292.295L190.062 286.559H191.509L193.52 291.008L195.45 286.559H196.803L192.608 295.699ZM198.826 291.477C199.219 291.879 199.697 292.08 200.26 292.08C200.823 292.08 201.296 291.879 201.68 291.477C202.073 291.066 202.27 290.499 202.27 289.775C202.27 289.061 202.073 288.502 201.68 288.1C201.296 287.689 200.823 287.484 200.26 287.484C199.697 287.484 199.219 287.689 198.826 288.1C198.441 288.502 198.249 289.061 198.249 289.775C198.249 290.499 198.441 291.066 198.826 291.477ZM197.888 287.336C198.513 286.684 199.304 286.358 200.26 286.358C201.216 286.358 202.002 286.684 202.618 287.336C203.244 287.979 203.557 288.792 203.557 289.775C203.557 290.767 203.248 291.589 202.632 292.241C202.015 292.885 201.225 293.206 200.26 293.206C199.295 293.206 198.504 292.885 197.888 292.241C197.271 291.589 196.963 290.767 196.963 289.775C196.963 288.792 197.271 287.979 197.888 287.336ZM209.097 292.228C208.927 292.55 208.668 292.795 208.319 292.965C207.971 293.126 207.596 293.206 207.194 293.206C206.461 293.206 205.876 292.965 205.438 292.483C205 291.991 204.781 291.37 204.781 290.62V286.559H206.041V290.432C206.041 290.914 206.157 291.312 206.39 291.625C206.631 291.937 207.002 292.094 207.502 292.094C208.002 292.094 208.382 291.946 208.641 291.652C208.9 291.348 209.03 290.946 209.03 290.445V286.559H210.29V291.812C210.29 292.232 210.312 292.63 210.357 293.005H209.15C209.115 292.809 209.097 292.55 209.097 292.228ZM215.763 286.492V287.832C215.575 287.805 215.392 287.792 215.214 287.792C214.034 287.792 213.444 288.453 213.444 289.775V293.005H212.185V286.559H213.418V287.685C213.811 286.863 214.454 286.452 215.348 286.452C215.491 286.452 215.629 286.465 215.763 286.492ZM225.723 286.559L222.976 289.279L225.777 293.005H224.195L222.091 290.164L221.193 291.062V293.005H219.947V283.302H221.193V289.413L223.981 286.559H225.723ZM227.211 289.119H230.736C230.718 288.636 230.557 288.243 230.253 287.939C229.949 287.626 229.521 287.47 228.967 287.47C228.466 287.47 228.055 287.635 227.734 287.966C227.412 288.288 227.238 288.672 227.211 289.119ZM230.923 290.794L232.009 291.169C231.821 291.768 231.473 292.259 230.963 292.643C230.454 293.019 229.838 293.206 229.114 293.206C228.212 293.206 227.443 292.898 226.809 292.281C226.183 291.656 225.871 290.816 225.871 289.762C225.871 288.779 226.174 287.966 226.782 287.323C227.39 286.679 228.113 286.358 228.953 286.358C229.927 286.358 230.687 286.666 231.232 287.283C231.777 287.89 232.049 288.708 232.049 289.735C232.049 289.896 232.04 290.03 232.022 290.137H227.171C227.18 290.709 227.367 291.178 227.734 291.544C228.109 291.911 228.569 292.094 229.114 292.094C230.034 292.094 230.637 291.661 230.923 290.794ZM234.649 295.552H233.403V286.559H234.622V287.564C234.81 287.224 235.091 286.947 235.466 286.733C235.842 286.519 236.28 286.411 236.78 286.411C237.709 286.411 238.433 286.729 238.951 287.363C239.478 287.997 239.742 288.801 239.742 289.775C239.742 290.758 239.469 291.571 238.924 292.214C238.388 292.858 237.66 293.179 236.74 293.179C236.266 293.179 235.846 293.081 235.48 292.885C235.114 292.688 234.837 292.438 234.649 292.134V295.552ZM238.455 289.775C238.455 289.123 238.281 288.587 237.932 288.167C237.593 287.738 237.133 287.524 236.552 287.524C235.98 287.524 235.516 287.738 235.158 288.167C234.81 288.587 234.636 289.123 234.636 289.775C234.636 290.445 234.81 290.995 235.158 291.424C235.516 291.844 235.98 292.054 236.552 292.054C237.124 292.054 237.584 291.844 237.932 291.424C238.281 290.995 238.455 290.445 238.455 289.775ZM242.352 293.005H241.092V283.302H242.352V293.005ZM247.819 286.492V287.832C247.631 287.805 247.448 287.792 247.269 287.792C246.09 287.792 245.5 288.453 245.5 289.775V293.005H244.241V286.559H245.474V287.685C245.867 286.863 246.51 286.452 247.403 286.452C247.546 286.452 247.685 286.465 247.819 286.492ZM255.635 286.559H256.935L258.61 291.41L260.031 286.559H261.357L259.267 293.005H257.967L256.251 288.1L254.576 293.005H253.249L251.132 286.559H252.512L253.96 291.41L255.635 286.559ZM261.908 291.276C261.908 290.722 262.087 290.28 262.444 289.95C262.802 289.61 263.275 289.4 263.865 289.32L265.607 289.065C265.938 289.02 266.103 288.859 266.103 288.583C266.103 288.243 265.987 287.966 265.755 287.752C265.522 287.537 265.174 287.43 264.709 287.43C264.28 287.43 263.941 287.551 263.691 287.792C263.44 288.024 263.293 288.337 263.248 288.73L262.042 288.448C262.105 287.832 262.386 287.332 262.886 286.947C263.387 286.554 263.985 286.358 264.682 286.358C265.594 286.358 266.268 286.581 266.706 287.028C267.144 287.466 267.363 288.029 267.363 288.717V291.946C267.363 292.331 267.39 292.684 267.443 293.005H266.21C266.165 292.737 266.143 292.447 266.143 292.134C265.964 292.42 265.701 292.67 265.352 292.885C265.013 293.099 264.584 293.206 264.066 293.206C263.431 293.206 262.913 293.019 262.511 292.643C262.109 292.259 261.908 291.803 261.908 291.276ZM264.24 292.147C264.803 292.147 265.254 291.996 265.594 291.692C265.933 291.388 266.103 290.906 266.103 290.244V289.95L264.133 290.244C263.847 290.289 263.619 290.392 263.449 290.553C263.28 290.713 263.195 290.932 263.195 291.209C263.195 291.459 263.289 291.678 263.476 291.866C263.673 292.054 263.927 292.147 264.24 292.147ZM270.33 293.005H269.071V283.302H270.33V293.005ZM273.479 293.005H272.219V283.302H273.479V293.005ZM276.185 289.119H279.709C279.692 288.636 279.531 288.243 279.227 287.939C278.923 287.626 278.494 287.47 277.94 287.47C277.44 287.47 277.029 287.635 276.707 287.966C276.386 288.288 276.211 288.672 276.185 289.119ZM279.897 290.794L280.983 291.169C280.795 291.768 280.447 292.259 279.937 292.643C279.428 293.019 278.811 293.206 278.088 293.206C277.185 293.206 276.417 292.898 275.783 292.281C275.157 291.656 274.844 290.816 274.844 289.762C274.844 288.779 275.148 287.966 275.756 287.323C276.363 286.679 277.087 286.358 277.927 286.358C278.901 286.358 279.66 286.666 280.205 287.283C280.75 287.89 281.023 288.708 281.023 289.735C281.023 289.896 281.014 290.03 280.996 290.137H276.144C276.153 290.709 276.341 291.178 276.707 291.544C277.083 291.911 277.543 292.094 278.088 292.094C279.008 292.094 279.611 291.661 279.897 290.794ZM284.065 284.522V286.559H285.459V287.698H284.065V291.048C284.065 291.352 284.132 291.576 284.266 291.719C284.409 291.862 284.641 291.933 284.963 291.933C285.151 291.933 285.316 291.915 285.459 291.879V292.952C285.244 293.032 284.958 293.072 284.601 293.072C284.047 293.072 283.609 292.911 283.288 292.59C282.966 292.268 282.805 291.817 282.805 291.236V287.698H281.572V286.559H281.921C282.251 286.559 282.497 286.469 282.658 286.291C282.828 286.103 282.912 285.862 282.912 285.567V284.522H284.065ZM291.67 284.522V286.559H293.064V287.698H291.67V291.048C291.67 291.352 291.737 291.576 291.871 291.719C292.014 291.862 292.247 291.933 292.568 291.933C292.756 291.933 292.921 291.915 293.064 291.879V292.952C292.85 293.032 292.564 293.072 292.206 293.072C291.652 293.072 291.215 292.911 290.893 292.59C290.571 292.268 290.41 291.817 290.41 291.236V287.698H289.177V286.559H289.526C289.856 286.559 290.102 286.469 290.263 286.291C290.433 286.103 290.518 285.862 290.518 285.567V284.522H291.67ZM295.752 291.477C296.145 291.879 296.623 292.08 297.186 292.08C297.749 292.08 298.223 291.879 298.607 291.477C299 291.066 299.197 290.499 299.197 289.775C299.197 289.061 299 288.502 298.607 288.1C298.223 287.689 297.749 287.484 297.186 287.484C296.623 287.484 296.145 287.689 295.752 288.1C295.368 288.502 295.176 289.061 295.176 289.775C295.176 290.499 295.368 291.066 295.752 291.477ZM294.814 287.336C295.44 286.684 296.23 286.358 297.186 286.358C298.142 286.358 298.929 286.684 299.545 287.336C300.171 287.979 300.483 288.792 300.483 289.775C300.483 290.767 300.175 291.589 299.558 292.241C298.942 292.885 298.151 293.206 297.186 293.206C296.221 293.206 295.431 292.885 294.814 292.241C294.198 291.589 293.889 290.767 293.889 289.775C293.889 288.792 294.198 287.979 294.814 287.336ZM307.643 287.524C307.098 287.524 306.634 287.72 306.25 288.113C305.874 288.507 305.687 289.061 305.687 289.775C305.687 290.481 305.874 291.035 306.25 291.437C306.634 291.839 307.103 292.04 307.657 292.04C308.193 292.04 308.6 291.906 308.876 291.638C309.162 291.37 309.354 291.062 309.453 290.713L310.565 291.196C310.386 291.732 310.047 292.201 309.547 292.603C309.055 293.005 308.425 293.206 307.657 293.206C306.719 293.206 305.941 292.88 305.325 292.228C304.708 291.576 304.4 290.758 304.4 289.775C304.4 288.775 304.708 287.957 305.325 287.323C305.941 286.679 306.714 286.358 307.643 286.358C308.43 286.358 309.064 286.559 309.547 286.961C310.038 287.363 310.36 287.845 310.512 288.408L309.372 288.891C309.274 288.515 309.086 288.194 308.809 287.926C308.532 287.658 308.144 287.524 307.643 287.524ZM313.05 291.477C313.443 291.879 313.921 292.08 314.484 292.08C315.047 292.08 315.52 291.879 315.904 291.477C316.298 291.066 316.494 290.499 316.494 289.775C316.494 289.061 316.298 288.502 315.904 288.1C315.52 287.689 315.047 287.484 314.484 287.484C313.921 287.484 313.443 287.689 313.05 288.1C312.666 288.502 312.473 289.061 312.473 289.775C312.473 290.499 312.666 291.066 313.05 291.477ZM312.112 287.336C312.737 286.684 313.528 286.358 314.484 286.358C315.44 286.358 316.226 286.684 316.843 287.336C317.468 287.979 317.781 288.792 317.781 289.775C317.781 290.767 317.472 291.589 316.856 292.241C316.239 292.885 315.449 293.206 314.484 293.206C313.519 293.206 312.728 292.885 312.112 292.241C311.495 291.589 311.187 290.767 311.187 289.775C311.187 288.792 311.495 287.979 312.112 287.336ZM320.398 289.279V293.005H319.138V286.559H320.371V287.484C320.8 286.742 321.461 286.371 322.354 286.371C323.096 286.371 323.663 286.608 324.056 287.081C324.458 287.555 324.66 288.167 324.66 288.918V293.005H323.4V289.132C323.4 288.051 322.899 287.51 321.899 287.51C321.425 287.51 321.054 287.68 320.786 288.02C320.527 288.35 320.398 288.77 320.398 289.279ZM328.097 284.522V286.559H329.491V287.698H328.097V291.048C328.097 291.352 328.164 291.576 328.298 291.719C328.441 291.862 328.674 291.933 328.995 291.933C329.183 291.933 329.348 291.915 329.491 291.879V292.952C329.277 293.032 328.991 293.072 328.634 293.072C328.08 293.072 327.642 292.911 327.32 292.59C326.998 292.268 326.838 291.817 326.838 291.236V287.698H325.605V286.559H325.953C326.284 286.559 326.529 286.469 326.69 286.291C326.86 286.103 326.945 285.862 326.945 285.567V284.522H328.097ZM332.165 293.005H330.918V286.559H332.165V293.005ZM330.891 284.763C330.722 284.584 330.637 284.37 330.637 284.12C330.637 283.869 330.722 283.655 330.891 283.476C331.07 283.298 331.284 283.208 331.535 283.208C331.785 283.208 331.999 283.298 332.178 283.476C332.357 283.646 332.446 283.861 332.446 284.12C332.446 284.37 332.357 284.584 332.178 284.763C331.999 284.933 331.785 285.018 331.535 285.018C331.284 285.018 331.07 284.933 330.891 284.763ZM335.313 289.279V293.005H334.053V286.559H335.286V287.484C335.715 286.742 336.376 286.371 337.27 286.371C338.011 286.371 338.579 286.608 338.972 287.081C339.374 287.555 339.575 288.167 339.575 288.918V293.005H338.315V289.132C338.315 288.051 337.815 287.51 336.814 287.51C336.341 287.51 335.97 287.68 335.702 288.02C335.443 288.35 335.313 288.77 335.313 289.279ZM345.442 292.228C345.272 292.55 345.013 292.795 344.664 292.965C344.316 293.126 343.941 293.206 343.539 293.206C342.806 293.206 342.221 292.965 341.783 292.483C341.345 291.991 341.126 291.37 341.126 290.62V286.559H342.386V290.432C342.386 290.914 342.502 291.312 342.735 291.625C342.976 291.937 343.347 292.094 343.847 292.094C344.347 292.094 344.727 291.946 344.986 291.652C345.245 291.348 345.375 290.946 345.375 290.445V286.559H346.635V291.812C346.635 292.232 346.657 292.63 346.702 293.005H345.495C345.46 292.809 345.442 292.55 345.442 292.228ZM349.282 289.119H352.807C352.789 288.636 352.628 288.243 352.324 287.939C352.02 287.626 351.591 287.47 351.037 287.47C350.537 287.47 350.126 287.635 349.804 287.966C349.483 288.288 349.309 288.672 349.282 289.119ZM352.994 290.794L354.08 291.169C353.892 291.768 353.544 292.259 353.034 292.643C352.525 293.019 351.909 293.206 351.185 293.206C350.282 293.206 349.514 292.898 348.88 292.281C348.254 291.656 347.942 290.816 347.942 289.762C347.942 288.779 348.245 287.966 348.853 287.323C349.461 286.679 350.184 286.358 351.024 286.358C351.998 286.358 352.757 286.666 353.302 287.283C353.847 287.89 354.12 288.708 354.12 289.735C354.12 289.896 354.111 290.03 354.093 290.137H349.242C349.251 290.709 349.438 291.178 349.804 291.544C350.18 291.911 350.64 292.094 351.185 292.094C352.105 292.094 352.708 291.661 352.994 290.794Z" fill="#7E8082"/>
<rect x="147.747" y="325.809" width="158.505" height="40.4536" rx="5.8634" fill="#1A73E8"/>
<path d="M169.861 350.737C167.301 350.737 165.063 348.888 165.063 345.792C165.063 342.696 167.381 340.833 169.847 340.833C172.26 340.833 173.694 342.254 174.123 343.915L172.608 344.425C172.327 343.272 171.442 342.347 169.847 342.347C168.279 342.347 166.711 343.487 166.711 345.792C166.711 348.016 168.239 349.196 169.861 349.196C171.456 349.196 172.367 348.177 172.689 347.105L174.163 347.588C173.734 349.196 172.287 350.737 169.861 350.737ZM178.294 349.343C179.259 349.343 180.117 348.633 180.117 347.266C180.117 345.912 179.259 345.215 178.294 345.215C177.342 345.215 176.471 345.912 176.471 347.266C176.471 348.62 177.342 349.343 178.294 349.343ZM178.294 343.808C180.251 343.808 181.685 345.269 181.685 347.266C181.685 349.276 180.251 350.737 178.294 350.737C176.351 350.737 174.917 349.276 174.917 347.266C174.917 345.269 176.351 343.808 178.294 343.808ZM184.742 346.77V350.536H183.187V344.009H184.701V344.88C185.13 344.13 185.908 343.822 186.631 343.822C188.226 343.822 188.99 344.974 188.99 346.408V350.536H187.435V346.676C187.435 345.872 187.074 345.229 186.095 345.229C185.211 345.229 184.742 345.912 184.742 346.77ZM192.437 346.77V350.536H190.883V344.009H192.397V344.88C192.826 344.13 193.603 343.822 194.327 343.822C195.922 343.822 196.686 344.974 196.686 346.408V350.536H195.131V346.676C195.131 345.872 194.769 345.229 193.791 345.229C192.906 345.229 192.437 345.912 192.437 346.77ZM199.664 346.556H202.867C202.84 345.792 202.331 345.108 201.259 345.108C200.28 345.108 199.718 345.859 199.664 346.556ZM203.041 348.258L204.355 348.673C204.006 349.812 202.974 350.737 201.406 350.737C199.637 350.737 198.069 349.451 198.069 347.239C198.069 345.175 199.597 343.808 201.245 343.808C203.256 343.808 204.435 345.135 204.435 347.199C204.435 347.454 204.408 347.668 204.395 347.695H199.624C199.664 348.687 200.441 349.397 201.406 349.397C202.344 349.397 202.827 348.901 203.041 348.258ZM208.762 345.242C207.81 345.242 206.966 345.953 206.966 347.266C206.966 348.579 207.81 349.316 208.789 349.316C209.807 349.316 210.276 348.606 210.424 348.11L211.791 348.606C211.483 349.625 210.504 350.737 208.789 350.737C206.872 350.737 205.411 349.249 205.411 347.266C205.411 345.256 206.872 343.808 208.749 343.808C210.504 343.808 211.469 344.907 211.737 345.953L210.343 346.462C210.196 345.886 209.754 345.242 208.762 345.242ZM215.142 342.012V344.009H216.495V345.39H215.142V348.419C215.142 348.995 215.396 349.236 215.973 349.236C216.187 349.236 216.442 349.196 216.509 349.182V350.469C216.415 350.509 216.12 350.616 215.557 350.616C214.351 350.616 213.6 349.893 213.6 348.673V345.39H212.394V344.009H212.729C213.426 344.009 213.734 343.567 213.734 342.991V342.012H215.142ZM227.355 350.536L224.393 346.422L223.133 347.802V350.536H221.525V341.034H223.133V345.591L227.221 341.034H229.338L225.492 345.229L229.378 350.536H227.355ZM231.936 353.082H230.395V344.009H231.896V344.894C232.218 344.331 232.968 343.862 233.974 343.862C235.903 343.862 236.989 345.336 236.989 347.266C236.989 349.223 235.796 350.697 233.92 350.697C232.982 350.697 232.272 350.295 231.936 349.799V353.082ZM235.434 347.266C235.434 346.046 234.724 345.242 233.679 345.242C232.66 345.242 231.923 346.046 231.923 347.266C231.923 348.512 232.66 349.316 233.679 349.316C234.711 349.316 235.434 348.512 235.434 347.266ZM240.038 350.536H238.484V340.833H240.038V350.536ZM245.863 343.969V345.551C245.689 345.524 245.515 345.51 245.354 345.51C244.148 345.51 243.598 346.207 243.598 347.427V350.536H242.044V344.009H243.558V345.055C243.866 344.344 244.59 343.929 245.448 343.929C245.635 343.929 245.796 343.956 245.863 343.969ZM259.385 348.03L261.248 341.034H262.91L260.243 350.536H258.581L256.276 343.353L253.97 350.536H252.322L249.628 341.034H251.317L253.22 347.976L255.445 341.034H257.12L259.385 348.03ZM263.276 348.767C263.276 347.601 264.134 346.958 265.246 346.797L266.921 346.542C267.296 346.489 267.404 346.301 267.404 346.073C267.404 345.524 267.028 345.081 266.171 345.081C265.353 345.081 264.897 345.604 264.83 346.261L263.41 345.939C263.53 344.813 264.549 343.808 266.157 343.808C268.168 343.808 268.931 344.947 268.931 346.247V349.491C268.931 350.08 268.998 350.469 269.012 350.536H267.564C267.551 350.496 267.497 350.228 267.497 349.705C267.189 350.201 266.546 350.737 265.487 350.737C264.12 350.737 263.276 349.799 263.276 348.767ZM265.782 349.518C266.653 349.518 267.404 349.102 267.404 347.829V347.534L265.702 347.789C265.219 347.869 264.83 348.137 264.83 348.673C264.83 349.115 265.166 349.518 265.782 349.518ZM272.365 350.536H270.811V340.833H272.365V350.536ZM275.925 350.536H274.371V340.833H275.925V350.536ZM279.016 346.556H282.219C282.193 345.792 281.683 345.108 280.611 345.108C279.633 345.108 279.07 345.859 279.016 346.556ZM282.394 348.258L283.707 348.673C283.358 349.812 282.327 350.737 280.758 350.737C278.989 350.737 277.421 349.451 277.421 347.239C277.421 345.175 278.949 343.808 280.598 343.808C282.608 343.808 283.787 345.135 283.787 347.199C283.787 347.454 283.761 347.668 283.747 347.695H278.976C279.016 348.687 279.794 349.397 280.758 349.397C281.697 349.397 282.179 348.901 282.394 348.258ZM287.243 342.012V344.009H288.597V345.39H287.243V348.419C287.243 348.995 287.498 349.236 288.074 349.236C288.288 349.236 288.543 349.196 288.61 349.182V350.469C288.516 350.509 288.221 350.616 287.659 350.616C286.452 350.616 285.702 349.893 285.702 348.673V345.39H284.496V344.009H284.831C285.528 344.009 285.836 343.567 285.836 342.991V342.012H287.243Z" fill="white"/>
</g>
<defs>
<linearGradient id="paint0_linear_596_568" x1="197.5" y1="137.5" x2="191.5" y2="502" gradientUnits="userSpaceOnUse">
<stop stop-color="#E2F0FF"/>
<stop offset="1" stop-color="white"/>
</linearGradient>
<clipPath id="clip0_596_568">
<path d="M24 144.5C24 140.634 27.134 137.5 31 137.5H364C367.866 137.5 371 140.634 371 144.5V449.5C371 453.366 367.866 456.5 364 456.5H31C27.134 456.5 24 453.366 24 449.5V144.5Z" fill="white"/>
</clipPath>
</defs>
</svg>
