<svg width="88" height="88" viewBox="0 0 88 88" fill="none" xmlns="http://www.w3.org/2000/svg">
<path d="M83.6597 51.0265C84.3355 52.9354 83.3363 55.0309 81.4274 55.707C79.4705 56.4 77.2104 57.892 74.8157 59.9919C72.4591 62.0584 70.1667 64.5408 68.1365 66.9747C66.1129 69.4002 64.3943 71.7238 63.1803 73.4434C62.5749 74.3014 61.6208 75.7325 61.2982 76.2169C60.5894 77.3319 59.335 77.9802 58.0158 77.9127C56.6958 77.8449 55.5147 77.0723 54.9237 75.8906C53.3078 72.6588 51.8583 71.3721 51.1276 70.8848C50.8185 70.6788 50.6095 70.5962 50.5266 70.568C48.6625 70.3949 47.2031 68.8267 47.2031 66.9175C47.2031 64.8924 48.8447 63.2508 50.8698 63.2508C53.083 63.2508 54.1892 64.1125 55.1954 64.7831C56.2011 65.4538 57.256 66.3803 58.3146 67.6486C59.4703 66.069 60.8945 64.2078 62.5052 62.2769C64.6807 59.6692 67.2415 56.8804 69.9805 54.4783C72.6813 52.1097 75.7595 49.9346 78.9792 48.7943C80.8881 48.1185 82.9836 49.1177 83.6597 51.0265Z" fill="#2ECC71"/>
<path d="M24.293 23.833C24.293 13.2015 32.9115 4.58301 43.543 4.58301C54.1745 4.58301 62.793 13.2015 62.793 23.833C62.793 34.4645 54.1745 43.083 43.543 43.083C32.9115 43.083 24.293 34.4645 24.293 23.833Z" fill="#8C57E8"/>
<path d="M45.7595 48.9955C41.8589 48.4455 37.8923 48.4455 33.9916 48.9955C28.6218 49.753 23.3709 51.5537 18.5865 54.4027C18.1601 54.6565 17.6334 54.9538 17.0372 55.2901C14.4235 56.7644 10.4722 58.9938 7.76562 61.6429C6.07283 63.2999 4.46445 65.4834 4.17203 68.1586C3.8611 71.0032 5.10212 73.6729 7.59186 76.0449C11.8871 80.1369 17.0417 83.4163 23.7088 83.4163H50.0484C52.5374 83.4163 53.7815 83.4163 54.0605 82.7307C54.3392 82.0446 53.4287 81.158 51.6079 79.3848C50.5482 78.3527 49.5226 77.2838 48.8245 76.3947C48.5572 76.054 48.4234 75.8835 48.3042 75.7955C48.1854 75.7072 47.9775 75.6269 47.5621 75.4655C44.1356 74.1367 41.7082 70.8125 41.7082 66.9171C41.7082 61.8545 45.8123 57.7504 50.8749 57.7504C52.944 57.7504 54.5702 58.2227 55.7971 58.7712C56.7196 59.1841 57.1809 59.3905 57.538 59.3102C57.8951 59.2295 58.1829 58.8922 58.759 58.2175C59.1473 57.7629 59.5613 57.2822 59.973 56.8106C60.8255 55.8338 61.2519 55.3454 61.1507 54.8185C61.0495 54.2916 60.5018 54.0111 59.4062 53.4498C55.1305 51.2604 50.2626 49.6306 45.7595 48.9955Z" fill="#8C57E8"/>
</svg>
