<svg width="160" height="160" viewBox="0 0 160 160" fill="none" xmlns="http://www.w3.org/2000/svg">
<circle cx="80" cy="80" r="80" fill="#BEBEBE"/>
<path d="M80 127.5C106.234 127.5 127.5 106.234 127.5 80C127.5 53.7665 106.234 32.5 80 32.5C53.7665 32.5 32.5 53.7665 32.5 80C32.5 106.234 53.7665 127.5 80 127.5Z" stroke="#E4E4E7" stroke-width="5"/>
<path d="M58.625 103.75C69.7006 92.1496 90.1802 91.6033 101.375 103.75M91.8517 68.125C91.8517 74.6833 86.5274 80 79.9596 80C73.3923 80 68.0679 74.6833 68.0679 68.125C68.0679 61.5666 73.3923 56.25 79.9596 56.25C86.5274 56.25 91.8517 61.5666 91.8517 68.125Z" stroke="#E4E4E7" stroke-width="5" stroke-linecap="round"/>
</svg>
